<svg width="150" height="38" viewBox="0 0 150 38" fill="none" xmlns="http://www.w3.org/2000/svg">
<rect width="150" height="38" rx="19" fill="#D9304F"/>
<path d="M32 25.75V24.25C32 23.4544 31.6839 22.6913 31.1213 22.1287C30.5587 21.5661 29.7956 21.25 29 21.25H23.75C22.9544 21.25 22.1913 21.5661 21.6287 22.1287C21.0661 22.6913 20.75 23.4544 20.75 24.25V25.75" stroke="white" stroke-width="1.5" stroke-linecap="round" stroke-linejoin="round"/>
<path d="M26.375 18.25C28.0319 18.25 29.375 16.9069 29.375 15.25C29.375 13.5931 28.0319 12.25 26.375 12.25C24.7181 12.25 23.375 13.5931 23.375 15.25C23.375 16.9069 24.7181 18.25 26.375 18.25Z" stroke="white" stroke-width="1.5" stroke-linecap="round" stroke-linejoin="round"/>
<path d="M35 16V20.5" stroke="white" stroke-width="1.5" stroke-linecap="round" stroke-linejoin="round"/>
<path d="M37.25 18.25H32.75" stroke="white" stroke-width="1.5" stroke-linecap="round" stroke-linejoin="round"/>
<path d="M44.5469 20.1035V24H43.2344V14.0469H46.9053C47.9945 14.0469 48.8467 14.3249 49.4619 14.8809C50.0817 15.4368 50.3916 16.1729 50.3916 17.0889C50.3916 18.055 50.0885 18.8001 49.4824 19.3242C48.8809 19.8438 48.0173 20.1035 46.8916 20.1035H44.5469ZM44.5469 19.0303H46.9053C47.6071 19.0303 48.1449 18.8662 48.5186 18.5381C48.8923 18.2054 49.0791 17.7269 49.0791 17.1025C49.0791 16.5101 48.8923 16.0361 48.5186 15.6807C48.1449 15.3252 47.6322 15.1406 46.9805 15.127H44.5469V19.0303ZM56.4346 23.2686C55.9424 23.8473 55.2201 24.1367 54.2676 24.1367C53.4792 24.1367 52.8776 23.9089 52.4629 23.4531C52.0527 22.9928 51.8454 22.3138 51.8408 21.416V16.6035H53.1055V21.3818C53.1055 22.5029 53.5612 23.0635 54.4727 23.0635C55.4388 23.0635 56.0814 22.7035 56.4004 21.9834V16.6035H57.665V24H56.4619L56.4346 23.2686ZM63.8994 22.0381C63.8994 21.6963 63.7695 21.432 63.5098 21.2451C63.2546 21.0537 62.8057 20.8896 62.1631 20.7529C61.5251 20.6162 61.0169 20.4521 60.6387 20.2607C60.265 20.0693 59.987 19.8415 59.8047 19.5771C59.627 19.3128 59.5381 18.9984 59.5381 18.6338C59.5381 18.0277 59.7933 17.515 60.3037 17.0957C60.8187 16.6764 61.4749 16.4668 62.2725 16.4668C63.111 16.4668 63.79 16.6833 64.3096 17.1162C64.8337 17.5492 65.0957 18.1029 65.0957 18.7773H63.8242C63.8242 18.431 63.6761 18.1325 63.3799 17.8818C63.0882 17.6312 62.7191 17.5059 62.2725 17.5059C61.8122 17.5059 61.4521 17.6061 61.1924 17.8066C60.9326 18.0072 60.8027 18.2692 60.8027 18.5928C60.8027 18.8981 60.9235 19.1283 61.165 19.2832C61.4066 19.4382 61.8418 19.5863 62.4707 19.7275C63.1042 19.8688 63.6169 20.0374 64.0088 20.2334C64.4007 20.4294 64.6901 20.6663 64.877 20.9443C65.0684 21.2178 65.1641 21.5527 65.1641 21.9492C65.1641 22.61 64.8997 23.141 64.3711 23.542C63.8424 23.9385 63.1566 24.1367 62.3135 24.1367C61.721 24.1367 61.1969 24.0319 60.7412 23.8223C60.2855 23.6126 59.9277 23.321 59.668 22.9473C59.4128 22.569 59.2852 22.1611 59.2852 21.7236H60.5498C60.5726 22.1475 60.7412 22.4847 61.0557 22.7354C61.3747 22.9814 61.7939 23.1045 62.3135 23.1045C62.792 23.1045 63.1748 23.0088 63.4619 22.8174C63.7536 22.6214 63.8994 22.3617 63.8994 22.0381ZM68.0762 17.499C68.6367 16.8109 69.3659 16.4668 70.2637 16.4668C71.8268 16.4668 72.6152 17.3486 72.6289 19.1123V24H71.3643V19.1055C71.3597 18.5723 71.2367 18.1781 70.9951 17.9229C70.7581 17.6676 70.3867 17.54 69.8809 17.54C69.4707 17.54 69.1107 17.6494 68.8008 17.8682C68.4909 18.0869 68.2493 18.374 68.0762 18.7295V24H66.8115V13.5H68.0762V17.499ZM80.9619 23.1045C81.4131 23.1045 81.8073 22.9678 82.1445 22.6943C82.4818 22.4209 82.6686 22.0791 82.7051 21.6689H83.9014C83.8786 22.0928 83.7327 22.4961 83.4639 22.8789C83.195 23.2617 82.835 23.5671 82.3838 23.7949C81.9372 24.0228 81.4632 24.1367 80.9619 24.1367C79.9548 24.1367 79.1527 23.8018 78.5557 23.1318C77.9632 22.4574 77.667 21.5368 77.667 20.3701V20.1582C77.667 19.4382 77.7992 18.7979 78.0635 18.2373C78.3278 17.6768 78.7061 17.2415 79.1982 16.9316C79.695 16.6217 80.2806 16.4668 80.9551 16.4668C81.7845 16.4668 82.4727 16.7152 83.0195 17.2119C83.571 17.7087 83.8649 18.3535 83.9014 19.1465H82.7051C82.6686 18.668 82.4863 18.276 82.1582 17.9707C81.8346 17.6608 81.4336 17.5059 80.9551 17.5059C80.3125 17.5059 79.8135 17.7383 79.458 18.2031C79.1071 18.6634 78.9316 19.3311 78.9316 20.2061V20.4453C78.9316 21.2975 79.1071 21.9538 79.458 22.4141C79.8089 22.8743 80.3102 23.1045 80.9619 23.1045ZM86.5879 17.499C87.1484 16.8109 87.8776 16.4668 88.7754 16.4668C90.3385 16.4668 91.127 17.3486 91.1406 19.1123V24H89.876V19.1055C89.8714 18.5723 89.7484 18.1781 89.5068 17.9229C89.2699 17.6676 88.8984 17.54 88.3926 17.54C87.9824 17.54 87.6224 17.6494 87.3125 17.8682C87.0026 18.0869 86.7611 18.374 86.5879 18.7295V24H85.3232V13.5H86.5879V17.499ZM97.6006 24C97.5277 23.8542 97.4684 23.5944 97.4229 23.2207C96.835 23.8314 96.1331 24.1367 95.3174 24.1367C94.5882 24.1367 93.9889 23.9316 93.5195 23.5215C93.0547 23.1068 92.8223 22.5827 92.8223 21.9492C92.8223 21.179 93.1139 20.582 93.6973 20.1582C94.2852 19.7298 95.11 19.5156 96.1719 19.5156H97.4023V18.9346C97.4023 18.4925 97.2702 18.1416 97.0059 17.8818C96.7415 17.6175 96.3519 17.4854 95.8369 17.4854C95.3857 17.4854 95.0075 17.5993 94.7021 17.8271C94.3968 18.055 94.2441 18.3307 94.2441 18.6543H92.9727C92.9727 18.2852 93.1025 17.9297 93.3623 17.5879C93.6266 17.2415 93.9821 16.9681 94.4287 16.7676C94.8799 16.5671 95.3743 16.4668 95.9121 16.4668C96.7643 16.4668 97.432 16.681 97.915 17.1094C98.3981 17.5332 98.6488 18.1188 98.667 18.8662V22.2705C98.667 22.9495 98.7536 23.4896 98.9268 23.8906V24H97.6006ZM95.502 23.0361C95.8984 23.0361 96.2744 22.9336 96.6299 22.7285C96.9854 22.5234 97.2428 22.2568 97.4023 21.9287V20.4111H96.4111C94.8617 20.4111 94.0869 20.8646 94.0869 21.7715C94.0869 22.168 94.2191 22.4779 94.4834 22.7012C94.7477 22.9245 95.0872 23.0361 95.502 23.0361ZM101.846 16.6035L101.887 17.5332C102.452 16.8223 103.19 16.4668 104.102 16.4668C105.665 16.4668 106.453 17.3486 106.467 19.1123V24H105.202V19.1055C105.198 18.5723 105.075 18.1781 104.833 17.9229C104.596 17.6676 104.225 17.54 103.719 17.54C103.309 17.54 102.949 17.6494 102.639 17.8682C102.329 18.0869 102.087 18.374 101.914 18.7295V24H100.649V16.6035H101.846ZM108.073 20.2402C108.073 19.0872 108.34 18.1712 108.873 17.4922C109.406 16.8086 110.113 16.4668 110.992 16.4668C111.895 16.4668 112.599 16.7858 113.104 17.4238L113.166 16.6035H114.321V23.8223C114.321 24.7793 114.036 25.5335 113.467 26.085C112.902 26.6364 112.141 26.9121 111.184 26.9121C110.65 26.9121 110.129 26.7982 109.618 26.5703C109.108 26.3424 108.718 26.0303 108.449 25.6338L109.105 24.875C109.648 25.5449 110.311 25.8799 111.095 25.8799C111.71 25.8799 112.188 25.7067 112.53 25.3604C112.877 25.014 113.05 24.5264 113.05 23.8975V23.2617C112.544 23.8451 111.854 24.1367 110.979 24.1367C110.113 24.1367 109.411 23.7881 108.873 23.0908C108.34 22.3936 108.073 21.4434 108.073 20.2402ZM109.345 20.3838C109.345 21.2178 109.516 21.874 109.857 22.3525C110.199 22.8265 110.678 23.0635 111.293 23.0635C112.09 23.0635 112.676 22.7012 113.05 21.9766V18.5996C112.662 17.8932 112.081 17.54 111.307 17.54C110.691 17.54 110.211 17.7793 109.864 18.2578C109.518 18.7363 109.345 19.445 109.345 20.3838ZM119.305 24.1367C118.302 24.1367 117.486 23.8086 116.857 23.1523C116.229 22.4915 115.914 21.6097 115.914 20.5068V20.2744C115.914 19.5407 116.053 18.8867 116.331 18.3125C116.614 17.7337 117.006 17.2826 117.507 16.959C118.013 16.6309 118.56 16.4668 119.147 16.4668C120.109 16.4668 120.856 16.7835 121.39 17.417C121.923 18.0505 122.189 18.9574 122.189 20.1377V20.6641H117.179C117.197 21.3932 117.409 21.9834 117.814 22.4346C118.225 22.8812 118.744 23.1045 119.373 23.1045C119.82 23.1045 120.198 23.0133 120.508 22.8311C120.818 22.6488 121.089 22.4072 121.321 22.1064L122.094 22.708C121.474 23.6605 120.544 24.1367 119.305 24.1367ZM119.147 17.5059C118.637 17.5059 118.209 17.6927 117.862 18.0664C117.516 18.4355 117.302 18.9551 117.22 19.625H120.925V19.5293C120.888 18.8867 120.715 18.39 120.405 18.0391C120.095 17.6836 119.676 17.5059 119.147 17.5059ZM127.966 22.0381C127.966 21.6963 127.836 21.432 127.576 21.2451C127.321 21.0537 126.872 20.8896 126.229 20.7529C125.591 20.6162 125.083 20.4521 124.705 20.2607C124.331 20.0693 124.053 19.8415 123.871 19.5771C123.693 19.3128 123.604 18.9984 123.604 18.6338C123.604 18.0277 123.86 17.515 124.37 17.0957C124.885 16.6764 125.541 16.4668 126.339 16.4668C127.177 16.4668 127.856 16.6833 128.376 17.1162C128.9 17.5492 129.162 18.1029 129.162 18.7773H127.891C127.891 18.431 127.743 18.1325 127.446 17.8818C127.155 17.6312 126.785 17.5059 126.339 17.5059C125.879 17.5059 125.519 17.6061 125.259 17.8066C124.999 18.0072 124.869 18.2692 124.869 18.5928C124.869 18.8981 124.99 19.1283 125.231 19.2832C125.473 19.4382 125.908 19.5863 126.537 19.7275C127.171 19.8688 127.683 20.0374 128.075 20.2334C128.467 20.4294 128.757 20.6663 128.943 20.9443C129.135 21.2178 129.23 21.5527 129.23 21.9492C129.23 22.61 128.966 23.141 128.438 23.542C127.909 23.9385 127.223 24.1367 126.38 24.1367C125.787 24.1367 125.263 24.0319 124.808 23.8223C124.352 23.6126 123.994 23.321 123.734 22.9473C123.479 22.569 123.352 22.1611 123.352 21.7236H124.616C124.639 22.1475 124.808 22.4847 125.122 22.7354C125.441 22.9814 125.86 23.1045 126.38 23.1045C126.858 23.1045 127.241 23.0088 127.528 22.8174C127.82 22.6214 127.966 22.3617 127.966 22.0381Z" fill="white"/>
</svg>
