<svg width="189" height="38" viewBox="0 0 189 38" fill="none" xmlns="http://www.w3.org/2000/svg">
<rect width="189" height="38" rx="19" fill="#D9304F"/>
<path d="M32 25.75V24.25C32 23.4544 31.6839 22.6913 31.1213 22.1287C30.5587 21.5661 29.7956 21.25 29 21.25H23.75C22.9544 21.25 22.1913 21.5661 21.6287 22.1287C21.0661 22.6913 20.75 23.4544 20.75 24.25V25.75" stroke="white" stroke-width="1.5" stroke-linecap="round" stroke-linejoin="round"/>
<path d="M26.375 18.25C28.0319 18.25 29.375 16.9069 29.375 15.25C29.375 13.5931 28.0319 12.25 26.375 12.25C24.7181 12.25 23.375 13.5931 23.375 15.25C23.375 16.9069 24.7181 18.25 26.375 18.25Z" stroke="white" stroke-width="1.5" stroke-linecap="round" stroke-linejoin="round"/>
<path d="M35 16V20.5" stroke="white" stroke-width="1.5" stroke-linecap="round" stroke-linejoin="round"/>
<path d="M37.25 18.25H32.75" stroke="white" stroke-width="1.5" stroke-linecap="round" stroke-linejoin="round"/>
<path d="M49.0078 21.4023H44.8379L43.9014 24H42.5479L46.3486 14.0469H47.4971L51.3047 24H49.958L49.0078 21.4023ZM45.2344 20.3223H48.6182L46.9229 15.667L45.2344 20.3223ZM52.1387 20.2402C52.1387 19.1055 52.4076 18.194 52.9453 17.5059C53.4831 16.8132 54.1872 16.4668 55.0576 16.4668C55.9235 16.4668 56.6094 16.763 57.1152 17.3555V13.5H58.3799V24H57.2178L57.1562 23.207C56.6504 23.8268 55.9463 24.1367 55.0439 24.1367C54.1872 24.1367 53.4876 23.7858 52.9453 23.084C52.4076 22.3822 52.1387 21.4661 52.1387 20.3359V20.2402ZM53.4033 20.3838C53.4033 21.2223 53.5765 21.8786 53.9229 22.3525C54.2692 22.8265 54.7477 23.0635 55.3584 23.0635C56.1605 23.0635 56.7461 22.7035 57.1152 21.9834V18.5859C56.737 17.8887 56.1559 17.54 55.3721 17.54C54.7523 17.54 54.2692 17.7793 53.9229 18.2578C53.5765 18.7363 53.4033 19.445 53.4033 20.3838ZM60.041 20.2402C60.041 19.1055 60.3099 18.194 60.8477 17.5059C61.3854 16.8132 62.0895 16.4668 62.96 16.4668C63.8258 16.4668 64.5117 16.763 65.0176 17.3555V13.5H66.2822V24H65.1201L65.0586 23.207C64.5527 23.8268 63.8486 24.1367 62.9463 24.1367C62.0895 24.1367 61.39 23.7858 60.8477 23.084C60.3099 22.3822 60.041 21.4661 60.041 20.3359V20.2402ZM61.3057 20.3838C61.3057 21.2223 61.4788 21.8786 61.8252 22.3525C62.1715 22.8265 62.6501 23.0635 63.2607 23.0635C64.0628 23.0635 64.6484 22.7035 65.0176 21.9834V18.5859C64.6393 17.8887 64.0583 17.54 63.2744 17.54C62.6546 17.54 62.1715 17.7793 61.8252 18.2578C61.4788 18.7363 61.3057 19.445 61.3057 20.3838ZM73.4395 14.8125V16.6035H74.8203V17.5811H73.4395V22.168C73.4395 22.4642 73.501 22.6875 73.624 22.8379C73.7471 22.9837 73.9567 23.0566 74.2529 23.0566C74.3988 23.0566 74.5993 23.0293 74.8545 22.9746V24C74.5218 24.0911 74.1982 24.1367 73.8838 24.1367C73.3187 24.1367 72.8926 23.9658 72.6055 23.624C72.3184 23.2822 72.1748 22.7969 72.1748 22.168V17.5811H70.8281V16.6035H72.1748V14.8125H73.4395ZM75.832 20.2334C75.832 19.5088 75.9733 18.8571 76.2559 18.2783C76.543 17.6995 76.9395 17.2529 77.4453 16.9385C77.9557 16.624 78.5368 16.4668 79.1885 16.4668C80.1956 16.4668 81.0091 16.8154 81.6289 17.5127C82.2533 18.21 82.5654 19.1374 82.5654 20.2949V20.3838C82.5654 21.1038 82.4264 21.751 82.1484 22.3252C81.875 22.8949 81.4808 23.3392 80.9658 23.6582C80.4554 23.9772 79.8675 24.1367 79.2021 24.1367C78.1995 24.1367 77.3861 23.7881 76.7617 23.0908C76.1419 22.3936 75.832 21.4707 75.832 20.3223V20.2334ZM77.1035 20.3838C77.1035 21.2041 77.2926 21.8626 77.6709 22.3594C78.0537 22.8561 78.5641 23.1045 79.2021 23.1045C79.8447 23.1045 80.3551 22.8538 80.7334 22.3525C81.1117 21.8467 81.3008 21.1403 81.3008 20.2334C81.3008 19.4222 81.1071 18.766 80.7197 18.2646C80.3369 17.7588 79.8265 17.5059 79.1885 17.5059C78.5641 17.5059 78.0605 17.7542 77.6777 18.251C77.2949 18.7477 77.1035 19.4587 77.1035 20.3838ZM89.3398 14.8125V16.6035H90.7207V17.5811H89.3398V22.168C89.3398 22.4642 89.4014 22.6875 89.5244 22.8379C89.6475 22.9837 89.8571 23.0566 90.1533 23.0566C90.2992 23.0566 90.4997 23.0293 90.7549 22.9746V24C90.4222 24.0911 90.0986 24.1367 89.7842 24.1367C89.2191 24.1367 88.793 23.9658 88.5059 23.624C88.2188 23.2822 88.0752 22.7969 88.0752 22.168V17.5811H86.7285V16.6035H88.0752V14.8125H89.3398ZM95.7793 17.7383C95.5879 17.7064 95.3805 17.6904 95.1572 17.6904C94.3278 17.6904 93.765 18.0436 93.4688 18.75V24H92.2041V16.6035H93.4346L93.4551 17.458C93.8698 16.7972 94.4577 16.4668 95.2188 16.4668C95.4648 16.4668 95.6517 16.4987 95.7793 16.5625V17.7383ZM101.515 23.2686C101.022 23.8473 100.3 24.1367 99.3477 24.1367C98.5592 24.1367 97.9577 23.9089 97.543 23.4531C97.1328 22.9928 96.9255 22.3138 96.9209 21.416V16.6035H98.1855V21.3818C98.1855 22.5029 98.6413 23.0635 99.5527 23.0635C100.519 23.0635 101.161 22.7035 101.48 21.9834V16.6035H102.745V24H101.542L101.515 23.2686ZM108.979 22.0381C108.979 21.6963 108.85 21.432 108.59 21.2451C108.335 21.0537 107.886 20.8896 107.243 20.7529C106.605 20.6162 106.097 20.4521 105.719 20.2607C105.345 20.0693 105.067 19.8415 104.885 19.5771C104.707 19.3128 104.618 18.9984 104.618 18.6338C104.618 18.0277 104.873 17.515 105.384 17.0957C105.899 16.6764 106.555 16.4668 107.353 16.4668C108.191 16.4668 108.87 16.6833 109.39 17.1162C109.914 17.5492 110.176 18.1029 110.176 18.7773H108.904C108.904 18.431 108.756 18.1325 108.46 17.8818C108.168 17.6312 107.799 17.5059 107.353 17.5059C106.892 17.5059 106.532 17.6061 106.272 17.8066C106.013 18.0072 105.883 18.2692 105.883 18.5928C105.883 18.8981 106.004 19.1283 106.245 19.2832C106.487 19.4382 106.922 19.5863 107.551 19.7275C108.184 19.8688 108.697 20.0374 109.089 20.2334C109.481 20.4294 109.77 20.6663 109.957 20.9443C110.148 21.2178 110.244 21.5527 110.244 21.9492C110.244 22.61 109.98 23.141 109.451 23.542C108.923 23.9385 108.237 24.1367 107.394 24.1367C106.801 24.1367 106.277 24.0319 105.821 23.8223C105.366 23.6126 105.008 23.321 104.748 22.9473C104.493 22.569 104.365 22.1611 104.365 21.7236H105.63C105.653 22.1475 105.821 22.4847 106.136 22.7354C106.455 22.9814 106.874 23.1045 107.394 23.1045C107.872 23.1045 108.255 23.0088 108.542 22.8174C108.834 22.6214 108.979 22.3617 108.979 22.0381ZM113.607 14.8125V16.6035H114.988V17.5811H113.607V22.168C113.607 22.4642 113.669 22.6875 113.792 22.8379C113.915 22.9837 114.125 23.0566 114.421 23.0566C114.567 23.0566 114.767 23.0293 115.022 22.9746V24C114.69 24.0911 114.366 24.1367 114.052 24.1367C113.487 24.1367 113.061 23.9658 112.773 23.624C112.486 23.2822 112.343 22.7969 112.343 22.168V17.5811H110.996V16.6035H112.343V14.8125H113.607ZM119.541 24.1367C118.538 24.1367 117.723 23.8086 117.094 23.1523C116.465 22.4915 116.15 21.6097 116.15 20.5068V20.2744C116.15 19.5407 116.289 18.8867 116.567 18.3125C116.85 17.7337 117.242 17.2826 117.743 16.959C118.249 16.6309 118.796 16.4668 119.384 16.4668C120.345 16.4668 121.093 16.7835 121.626 17.417C122.159 18.0505 122.426 18.9574 122.426 20.1377V20.6641H117.415C117.433 21.3932 117.645 21.9834 118.051 22.4346C118.461 22.8812 118.98 23.1045 119.609 23.1045C120.056 23.1045 120.434 23.0133 120.744 22.8311C121.054 22.6488 121.325 22.4072 121.558 22.1064L122.33 22.708C121.71 23.6605 120.781 24.1367 119.541 24.1367ZM119.384 17.5059C118.873 17.5059 118.445 17.6927 118.099 18.0664C117.752 18.4355 117.538 18.9551 117.456 19.625H121.161V19.5293C121.125 18.8867 120.951 18.39 120.642 18.0391C120.332 17.6836 119.912 17.5059 119.384 17.5059ZM123.588 20.2402C123.588 19.1055 123.857 18.194 124.395 17.5059C124.932 16.8132 125.636 16.4668 126.507 16.4668C127.373 16.4668 128.059 16.763 128.564 17.3555V13.5H129.829V24H128.667L128.605 23.207C128.1 23.8268 127.396 24.1367 126.493 24.1367C125.636 24.1367 124.937 23.7858 124.395 23.084C123.857 22.3822 123.588 21.4661 123.588 20.3359V20.2402ZM124.853 20.3838C124.853 21.2223 125.026 21.8786 125.372 22.3525C125.718 22.8265 126.197 23.0635 126.808 23.0635C127.61 23.0635 128.195 22.7035 128.564 21.9834V18.5859C128.186 17.8887 127.605 17.54 126.821 17.54C126.201 17.54 125.718 17.7793 125.372 18.2578C125.026 18.7363 124.853 19.445 124.853 20.3838ZM139.837 23.2686C139.345 23.8473 138.622 24.1367 137.67 24.1367C136.882 24.1367 136.28 23.9089 135.865 23.4531C135.455 22.9928 135.248 22.3138 135.243 21.416V16.6035H136.508V21.3818C136.508 22.5029 136.964 23.0635 137.875 23.0635C138.841 23.0635 139.484 22.7035 139.803 21.9834V16.6035H141.067V24H139.864L139.837 23.2686ZM147.302 22.0381C147.302 21.6963 147.172 21.432 146.912 21.2451C146.657 21.0537 146.208 20.8896 145.565 20.7529C144.927 20.6162 144.419 20.4521 144.041 20.2607C143.667 20.0693 143.389 19.8415 143.207 19.5771C143.029 19.3128 142.94 18.9984 142.94 18.6338C142.94 18.0277 143.196 17.515 143.706 17.0957C144.221 16.6764 144.877 16.4668 145.675 16.4668C146.513 16.4668 147.192 16.6833 147.712 17.1162C148.236 17.5492 148.498 18.1029 148.498 18.7773H147.227C147.227 18.431 147.078 18.1325 146.782 17.8818C146.491 17.6312 146.121 17.5059 145.675 17.5059C145.215 17.5059 144.854 17.6061 144.595 17.8066C144.335 18.0072 144.205 18.2692 144.205 18.5928C144.205 18.8981 144.326 19.1283 144.567 19.2832C144.809 19.4382 145.244 19.5863 145.873 19.7275C146.507 19.8688 147.019 20.0374 147.411 20.2334C147.803 20.4294 148.092 20.6663 148.279 20.9443C148.471 21.2178 148.566 21.5527 148.566 21.9492C148.566 22.61 148.302 23.141 147.773 23.542C147.245 23.9385 146.559 24.1367 145.716 24.1367C145.123 24.1367 144.599 24.0319 144.144 23.8223C143.688 23.6126 143.33 23.321 143.07 22.9473C142.815 22.569 142.688 22.1611 142.688 21.7236H143.952C143.975 22.1475 144.144 22.4847 144.458 22.7354C144.777 22.9814 145.196 23.1045 145.716 23.1045C146.194 23.1045 146.577 23.0088 146.864 22.8174C147.156 22.6214 147.302 22.3617 147.302 22.0381ZM153.283 24.1367C152.281 24.1367 151.465 23.8086 150.836 23.1523C150.207 22.4915 149.893 21.6097 149.893 20.5068V20.2744C149.893 19.5407 150.032 18.8867 150.31 18.3125C150.592 17.7337 150.984 17.2826 151.485 16.959C151.991 16.6309 152.538 16.4668 153.126 16.4668C154.088 16.4668 154.835 16.7835 155.368 17.417C155.901 18.0505 156.168 18.9574 156.168 20.1377V20.6641H151.157C151.175 21.3932 151.387 21.9834 151.793 22.4346C152.203 22.8812 152.723 23.1045 153.352 23.1045C153.798 23.1045 154.176 23.0133 154.486 22.8311C154.796 22.6488 155.067 22.4072 155.3 22.1064L156.072 22.708C155.452 23.6605 154.523 24.1367 153.283 24.1367ZM153.126 17.5059C152.616 17.5059 152.187 17.6927 151.841 18.0664C151.494 18.4355 151.28 18.9551 151.198 19.625H154.903V19.5293C154.867 18.8867 154.694 18.39 154.384 18.0391C154.074 17.6836 153.655 17.5059 153.126 17.5059ZM161.213 17.7383C161.021 17.7064 160.814 17.6904 160.591 17.6904C159.761 17.6904 159.199 18.0436 158.902 18.75V24H157.638V16.6035H158.868L158.889 17.458C159.303 16.7972 159.891 16.4668 160.652 16.4668C160.898 16.4668 161.085 16.4987 161.213 16.5625V17.7383ZM166.688 22.0381C166.688 21.6963 166.559 21.432 166.299 21.2451C166.044 21.0537 165.595 20.8896 164.952 20.7529C164.314 20.6162 163.806 20.4521 163.428 20.2607C163.054 20.0693 162.776 19.8415 162.594 19.5771C162.416 19.3128 162.327 18.9984 162.327 18.6338C162.327 18.0277 162.582 17.515 163.093 17.0957C163.608 16.6764 164.264 16.4668 165.062 16.4668C165.9 16.4668 166.579 16.6833 167.099 17.1162C167.623 17.5492 167.885 18.1029 167.885 18.7773H166.613C166.613 18.431 166.465 18.1325 166.169 17.8818C165.877 17.6312 165.508 17.5059 165.062 17.5059C164.601 17.5059 164.241 17.6061 163.981 17.8066C163.722 18.0072 163.592 18.2692 163.592 18.5928C163.592 18.8981 163.713 19.1283 163.954 19.2832C164.196 19.4382 164.631 19.5863 165.26 19.7275C165.893 19.8688 166.406 20.0374 166.798 20.2334C167.19 20.4294 167.479 20.6663 167.666 20.9443C167.857 21.2178 167.953 21.5527 167.953 21.9492C167.953 22.61 167.689 23.141 167.16 23.542C166.632 23.9385 165.946 24.1367 165.103 24.1367C164.51 24.1367 163.986 24.0319 163.53 23.8223C163.075 23.6126 162.717 23.321 162.457 22.9473C162.202 22.569 162.074 22.1611 162.074 21.7236H163.339C163.362 22.1475 163.53 22.4847 163.845 22.7354C164.164 22.9814 164.583 23.1045 165.103 23.1045C165.581 23.1045 165.964 23.0088 166.251 22.8174C166.543 22.6214 166.688 22.3617 166.688 22.0381Z" fill="white"/>
</svg>
