<svg width="20" height="20" viewBox="0 0 20 20" fill="none" xmlns="http://www.w3.org/2000/svg">
<path d="M17.2729 7.27271H9.09113C8.08698 7.27271 7.27295 8.08673 7.27295 9.09089V17.2727C7.27295 18.2769 8.08698 19.0909 9.09113 19.0909H17.2729C18.2771 19.0909 19.0911 18.2769 19.0911 17.2727V9.09089C19.0911 8.08673 18.2771 7.27271 17.2729 7.27271Z" stroke="#919191" stroke-width="1.5" stroke-linecap="round" stroke-linejoin="round"/>
<path d="M3.63645 12.7272H2.72736C2.24515 12.7272 1.78269 12.5357 1.44171 12.1947C1.10074 11.8537 0.90918 11.3913 0.90918 10.9091V2.72724C0.90918 2.24503 1.10074 1.78257 1.44171 1.44159C1.78269 1.10062 2.24515 0.909058 2.72736 0.909058H10.9092C11.3914 0.909058 11.8539 1.10062 12.1948 1.44159C12.5358 1.78257 12.7274 2.24503 12.7274 2.72724V3.63633" stroke="#919191" stroke-width="1.5" stroke-linecap="round" stroke-linejoin="round"/>
</svg>
