<svg width="28" height="24" viewBox="0 0 28 24" fill="none" xmlns="http://www.w3.org/2000/svg">
<path d="M19.25 11.25C19.9968 11.248 20.7338 11.4201 21.4025 11.7525C21.4651 11.3379 21.4976 10.9193 21.5 10.5V6L14.75 3L8 6V10.5C8 14.6625 10.88 18.555 14.75 19.5C15.0125 19.4325 15.275 19.35 15.5 19.26C14.764 18.3821 14.3651 17.2706 14.375 16.125C14.375 14.8321 14.8886 13.5921 15.8029 12.6779C16.7171 11.7636 17.9571 11.25 19.25 11.25ZM19.25 13.125V12L17.5625 13.6875L19.25 15.375V14.25C19.5701 14.2494 19.8849 14.3307 20.1647 14.4862C20.4444 14.6417 20.6797 14.8662 20.8481 15.1384C21.0165 15.4106 21.1125 15.7213 21.1268 16.041C21.1411 16.3608 21.0734 16.6789 20.93 16.965L21.7475 17.7825C22.047 17.3307 22.2185 16.8062 22.2437 16.2647C22.2689 15.7232 22.147 15.185 21.8908 14.7073C21.6347 14.2296 21.2538 13.8302 20.7889 13.5516C20.3239 13.273 19.7921 13.1255 19.25 13.125ZM19.25 18C18.9299 18.0006 18.6151 17.9193 18.3353 17.7638C18.0556 17.6083 17.8203 17.3838 17.6519 17.1116C17.4835 16.8394 17.3875 16.5287 17.3732 16.209C17.3589 15.8892 17.4266 15.5711 17.57 15.285L16.7525 14.4675C16.453 14.9193 16.2815 15.4438 16.2563 15.9853C16.2311 16.5268 16.353 17.065 16.6092 17.5427C16.8653 18.0204 17.2462 18.4198 17.7111 18.6984C18.1761 18.977 18.7079 19.1245 19.25 19.125V20.25L20.9375 18.5625L19.25 16.875V18Z" fill="#F5CF6C"/>
</svg>
