<svg width="26" height="16" viewBox="0 0 26 16" fill="none" xmlns="http://www.w3.org/2000/svg">
<path d="M20.6752 3.13568C16.4362 -1.006 9.56347 -1.006 5.3245 3.13568L4.81433 3.63414C4.60239 3.84122 4.60239 4.17697 4.81433 4.38405L6.55951 6.08918C6.66549 6.19272 6.83731 6.19272 6.94328 6.08918L7.64533 5.40324C10.6025 2.5139 15.3971 2.5139 18.3544 5.40324L19.1062 6.13782C19.2122 6.24137 19.384 6.24137 19.49 6.13782L21.2351 4.4327C21.4471 4.22561 21.4471 3.88986 21.2351 3.68278L20.6752 3.13568ZM1.7153 6.66206L0.16209 8.17963C-0.0498581 8.38671 -0.0498581 8.72246 0.162088 8.92954L7.16564 15.7725C7.37758 15.9795 7.72122 15.9795 7.93317 15.7725C7.93317 15.7725 7.93317 15.7725 7.93317 15.7725L12.9039 10.9158C12.9569 10.8641 13.0428 10.8641 13.0957 10.9158C13.0958 10.9158 13.0958 10.9158 13.0958 10.9158L18.0663 15.7725C18.2783 15.9795 18.6219 15.9795 18.8339 15.7725C18.8339 15.7725 18.8339 15.7725 18.8339 15.7725L25.8376 8.92945C26.0496 8.72237 26.0496 8.38662 25.8376 8.17954L24.2844 6.66197C24.0725 6.45489 23.7288 6.45489 23.5169 6.66197L18.5461 11.5186C18.4931 11.5704 18.4072 11.5704 18.3542 11.5186C18.3542 11.5186 18.3542 11.5186 18.3542 11.5186L13.3837 6.66197C13.1718 6.45488 12.8281 6.45487 12.6162 6.66195C12.6162 6.66196 12.6162 6.66196 12.6162 6.66196L7.6454 11.5186C7.59241 11.5704 7.5065 11.5704 7.45352 11.5186L2.48284 6.66206C2.27089 6.45497 1.92725 6.45497 1.7153 6.66206Z" fill="#3B99FC"/>
</svg>
