<svg width="30" height="30" viewBox="0 0 30 30" fill="none" xmlns="http://www.w3.org/2000/svg">
<path fill-rule="evenodd" clip-rule="evenodd" d="M15 30C23.2843 30 30 23.2843 30 15C30 6.71573 23.2843 0 15 0C6.71573 0 0 6.71573 0 15C0 23.2843 6.71573 30 15 30ZM18.146 6.75183C19.7181 7.01766 21.2215 7.48516 22.624 8.11766C22.6362 8.12254 22.6463 8.13165 22.6524 8.14333C25.1375 11.7385 26.364 15.7957 25.9056 20.4652C25.9045 20.475 25.9014 20.4845 25.8963 20.4931C25.8912 20.5016 25.8844 20.509 25.8763 20.5147C24.2094 21.729 22.3493 22.6529 20.3745 23.2472C20.3605 23.2514 20.3457 23.2512 20.3319 23.2466C20.3181 23.242 20.3061 23.2333 20.2975 23.2216C19.8822 22.6523 19.5045 22.0528 19.1745 21.4231C19.17 21.4144 19.1674 21.4049 19.1669 21.3951C19.1664 21.3853 19.168 21.3756 19.1715 21.3664C19.1751 21.3573 19.1806 21.3491 19.1876 21.3423C19.1946 21.3354 19.2029 21.3302 19.2121 21.3268C19.8107 21.105 20.3809 20.8382 20.929 20.5229C20.9388 20.5171 20.947 20.509 20.9528 20.4992C20.9587 20.4895 20.9621 20.4785 20.9626 20.4671C20.9631 20.4557 20.9609 20.4444 20.956 20.4342C20.9511 20.4239 20.9437 20.415 20.9345 20.4083C20.8181 20.3231 20.7035 20.2342 20.5935 20.1443C20.5835 20.1363 20.5713 20.1313 20.5585 20.1298C20.5457 20.1284 20.5328 20.1305 20.5211 20.1361C16.9635 21.7531 13.065 21.7531 9.46521 20.1361C9.45361 20.1308 9.44078 20.1289 9.42816 20.1305C9.41553 20.1322 9.40361 20.1372 9.39371 20.1452C9.28371 20.2342 9.16821 20.3231 9.05271 20.4083C9.04362 20.4152 9.03638 20.4242 9.03164 20.4345C9.02689 20.4449 9.02479 20.4562 9.02551 20.4676C9.02624 20.479 9.02977 20.49 9.0358 20.4996C9.04183 20.5093 9.05016 20.5173 9.06004 20.5229C9.61012 20.8356 10.1839 21.1047 10.776 21.3277C10.8145 21.3424 10.8329 21.3864 10.8136 21.4231C10.491 22.0537 10.1133 22.6542 9.68979 23.2225C9.68084 23.2337 9.6687 23.242 9.65497 23.2463C9.64123 23.2505 9.62653 23.2506 9.61279 23.2463C7.64135 22.6503 5.78423 21.7269 4.11921 20.5147C4.1113 20.5086 4.1047 20.501 4.09981 20.4924C4.09493 20.4837 4.09186 20.4741 4.09079 20.4642C3.70671 16.4254 4.48862 12.3352 7.34129 8.1415C7.34831 8.13045 7.35855 8.12181 7.37062 8.11675C8.77404 7.48333 10.2774 7.01583 11.8485 6.75C11.8627 6.74775 11.8772 6.74988 11.8902 6.7561C11.9031 6.76232 11.9139 6.77235 11.921 6.78483C12.1303 7.14987 12.3191 7.52628 12.4865 7.91233C14.1539 7.66321 15.849 7.66321 17.5163 7.91233C17.6666 7.564 17.8811 7.12308 18.0736 6.78483C18.0808 6.7725 18.0916 6.7627 18.1046 6.75679C18.1175 6.75087 18.132 6.74914 18.146 6.75183ZM9.37446 15.8232C9.37446 17.0249 10.2682 18.0048 11.3517 18.0048C12.4526 18.0048 13.329 17.0258 13.329 15.8232C13.3464 14.6287 12.4609 13.6415 11.3517 13.6415C10.2508 13.6415 9.37446 14.6205 9.37446 15.8232ZM16.6849 15.8232C16.6849 17.0249 17.5777 18.0048 18.6621 18.0048C19.7722 18.0048 20.6394 17.0258 20.6394 15.8232C20.6568 14.6287 19.7713 13.6415 18.6621 13.6415C17.5603 13.6415 16.6849 14.6205 16.6849 15.8232Z" fill="#919191"/>
</svg>
