<svg width="30" height="30" viewBox="0 0 30 30" fill="#919191" xmlns="http://www.w3.org/2000/svg">
<path fill-rule="evenodd" clip-rule="evenodd" d="M15 30C23.2843 30 30 23.2843 30 15C30 6.71573 23.2843 0 15 0C6.71573 0 0 6.71573 0 15C0 23.2843 6.71573 30 15 30ZM2.99998 15C2.99998 8.37001 8.36998 3.00001 15 3.00001C21.63 3.00001 27 8.37001 27 15C26.9993 17.5143 26.2101 19.9651 24.7436 22.0074C23.2772 24.0497 21.2072 25.5807 18.825 26.385C18.225 26.505 18 26.13 18 25.815C18 25.6796 18.0017 25.4452 18.0039 25.1332C18.0083 24.5121 18.015 23.5833 18.015 22.515C18.015 21.39 17.64 20.67 17.205 20.295C19.875 19.995 22.68 18.975 22.68 14.37C22.68 13.05 22.215 11.985 21.45 11.145C21.57 10.845 21.99 9.61501 21.33 7.96501C21.33 7.96501 20.325 7.63501 18.03 9.19501C17.07 8.92501 16.05 8.79001 15.03 8.79001C14.01 8.79001 12.99 8.92501 12.03 9.19501C9.73497 7.65001 8.72998 7.96501 8.72998 7.96501C8.06998 9.61501 8.48998 10.845 8.60998 11.145C7.84498 11.985 7.37998 13.065 7.37998 14.37C7.37998 18.96 10.17 19.995 12.84 20.295C12.495 20.595 12.18 21.12 12.075 21.9C11.385 22.215 9.65998 22.725 8.57998 20.91C8.35498 20.55 7.67998 19.665 6.73498 19.68C5.72998 19.695 6.32998 20.25 6.74998 20.475C7.25998 20.76 7.84498 21.825 7.97998 22.17C8.21998 22.845 8.99998 24.135 12.015 23.58C12.015 24.2358 12.0214 24.866 12.0258 25.304C12.0282 25.5373 12.03 25.716 12.03 25.815C12.03 26.13 11.805 26.49 11.205 26.385C6.43498 24.795 2.99998 20.31 2.99998 15Z"/>
</svg>
