<svg width="240" height="52" viewBox="0 0 297 52" fill="none" xmlns="http://www.w3.org/2000/svg">
<path d="M29.3507 23.849C29.3507 22.8689 28.6256 20.6376 25.8568 20.6376C23.088 20.6376 19 25 15 26.5L5.33039 5.31915H2.66541C1.95861 5.31915 1.28077 5.03894 0.780985 4.54018C0.281205 4.04141 0.000431061 3.36494 0.000431061 2.65957C0.000431061 1.95421 0.281205 1.27774 0.780985 0.778971C1.28077 0.280204 1.95861 0 2.66541 0H7.03666C7.53885 0.000144076 8.03065 0.142768 8.4547 0.411239C8.87875 0.67971 9.21758 1.06296 9.43168 1.5163L11.221 5.31915H50.6653C51.1274 5.3196 51.5815 5.44042 51.9825 5.66967C52.3835 5.89891 52.7177 6.22863 52.9519 6.62624C53.1861 7.02385 53.3123 7.47557 53.3179 7.93676C53.3236 8.39795 53.2085 8.85262 52.9842 9.25584L43.4249 26.5483C39.6454 25.0069 36.6378 20.6376 32.8445 20.6376C30.0783 20.6376 29.3507 22.8689 29.3507 23.849Z" fill="#2A2A2A"/>
<path d="M55.9976 23.0961C44.2683 39.4516 39.923 24.2281 32.8435 24.2281C30.0747 24.2281 29.3496 26.4594 29.3496 27.4395C29.3496 26.4594 28.6228 24.2281 25.8557 24.2281C18.7753 24.2281 14.4318 39.4516 2.70239 23.0961C2.47743 41.0335 19.5696 45.2733 29.3522 34.0556C39.1304 45.2733 56.2234 41.0335 55.9976 23.0961Z" fill="#2A2A2A"/>
<path d="M12.593 42.6008C11.9964 43.1009 11.5167 43.7253 11.1879 44.4302C10.859 45.1351 10.6889 45.9033 10.6895 46.6809C10.6895 49.6064 13.0611 52 15.9926 52C17.0482 52.0015 18.0805 51.6898 18.9581 51.1044C19.8358 50.519 20.5192 49.6864 20.9215 48.7124C21.3239 47.7384 21.4269 46.6671 21.2176 45.6345C21.0083 44.6019 20.4961 43.6548 19.7461 42.9134C17.3052 43.4289 14.8479 43.3201 12.593 42.6008Z" fill="#2A2A2A"/>
<path d="M38.9119 42.9039C38.413 43.3988 38.0172 43.9873 37.7472 44.6355C37.4772 45.2837 37.3385 45.9789 37.3389 46.6809C37.3389 49.6064 39.7105 52 42.6429 52C43.7363 52.0011 44.8035 51.6662 45.6995 51.0408C46.5955 50.4153 47.2769 49.5297 47.6509 48.5044C48.0249 47.479 48.0735 46.3635 47.7901 45.3096C47.5066 44.2557 46.9049 43.3144 46.0666 42.6138C43.8101 43.3253 41.3588 43.4272 38.9119 42.9039Z" fill="#2A2A2A"/>
<path d="M180.734 21.6648H177.812C177.557 21.6572 177.314 21.5496 177.136 21.365C176.958 21.1804 176.86 20.9335 176.861 20.6768V18.7394C176.861 18.609 176.886 18.4799 176.936 18.3595C176.986 18.239 177.059 18.1296 177.151 18.0375C177.243 17.9454 177.352 17.8724 177.472 17.8227C177.592 17.7729 177.721 17.7475 177.851 17.7477H180.734V8.81478C180.734 8.70741 180.755 8.60105 180.795 8.50184C180.836 8.40264 180.897 8.31256 180.972 8.2368C181.048 8.16105 181.138 8.10112 181.237 8.06048C181.336 8.01984 181.443 7.99929 181.55 8.00002H183.826C184.034 8.00002 184.234 8.08295 184.381 8.23056C184.528 8.37817 184.611 8.57838 184.611 8.78713V17.7477H187.475C187.744 17.7467 188.003 17.8522 188.195 18.0413C188.388 18.2303 188.498 18.4878 188.502 18.7579V20.6676C188.502 20.9321 188.398 21.1857 188.211 21.3728C188.025 21.5598 187.772 21.6648 187.508 21.6648H184.605V29.4623C184.603 29.9758 184.702 30.4846 184.896 30.9597C185.091 31.4349 185.376 31.8669 185.737 32.2312C186.098 32.5955 186.526 32.8849 186.999 33.0829C187.471 33.2808 187.978 33.3835 188.489 33.3849V37.256C187.379 37.2723 186.278 37.0465 185.263 36.5942C184.947 36.4523 182.568 35.3481 181.39 32.6955C180.94 31.6793 180.711 30.578 180.721 29.466C180.743 26.9 180.717 24.2253 180.734 21.6648Z" fill="#2A2A2A"/>
<path d="M128.032 25.5617C127.585 23.3586 126.392 21.3782 124.656 19.9562C122.92 18.5341 120.748 17.7578 118.507 17.7588C117.851 17.7585 117.196 17.8246 116.554 17.956C114.689 18.3416 112.979 19.2667 111.633 20.6172C110.287 21.9676 109.366 23.684 108.982 25.5544C108.851 26.2042 108.786 26.8657 108.789 27.5286V46.3788C108.789 46.5436 108.854 46.7016 108.97 46.8181C109.086 46.9346 109.244 47 109.408 47H112.059C112.221 46.9995 112.376 46.9346 112.491 46.8196C112.605 46.7045 112.669 46.5487 112.669 46.3862V35.326C113.817 36.1948 115.145 36.7951 116.554 37.0827C116.996 37.1762 117.445 37.2378 117.897 37.2671H119.115C119.56 37.2414 120.003 37.1835 120.44 37.0938C122.639 36.6472 124.617 35.4504 126.037 33.7067C127.457 31.9631 128.231 29.7801 128.228 27.5286C128.229 26.868 128.163 26.209 128.032 25.5617ZM124.015 29.4586C123.725 30.2869 123.253 31.0392 122.634 31.6601C122.015 32.2809 121.265 32.7545 120.44 33.0458C119.969 33.2128 119.479 33.317 118.981 33.3555C118.823 33.3702 118.665 33.3757 118.507 33.3757C118.349 33.3757 118.189 33.3757 118.033 33.3555C116.821 33.255 115.67 32.7768 114.742 31.9877C113.815 31.1986 113.156 30.1381 112.859 28.9548C112.562 27.7716 112.641 26.5247 113.086 25.3889C113.53 24.253 114.318 23.2851 115.338 22.6206C116.358 21.9561 117.56 21.6284 118.775 21.6833C119.99 21.7381 121.157 22.1729 122.114 22.9266C123.07 23.6803 123.768 24.7153 124.109 25.8866C124.45 27.0579 124.417 28.3069 124.015 29.4586Z" fill="#2A2A2A"/>
<path d="M149.414 25.5618C148.931 23.1924 147.589 21.0873 145.647 19.655C143.705 18.2226 141.301 17.5652 138.903 17.8102C136.505 18.0553 134.284 19.1854 132.669 20.9812C131.055 22.777 130.163 25.1104 130.167 27.5286V46.3788C130.167 46.5436 130.232 46.7016 130.348 46.8181C130.464 46.9346 130.622 47 130.786 47H133.439C133.52 47 133.599 46.9842 133.673 46.9533C133.748 46.9225 133.815 46.8773 133.872 46.8203C133.929 46.7633 133.974 46.6956 134.005 46.6211C134.035 46.5466 134.051 46.4668 134.051 46.3862V35.326C135.199 36.1949 136.526 36.7951 137.935 37.0828C138.378 37.1763 138.827 37.2379 139.278 37.2671H140.497C140.942 37.2413 141.385 37.1834 141.821 37.0938C144.022 36.6491 146 35.4528 147.42 33.7086C148.84 31.9645 149.613 29.7805 149.608 27.5286C149.609 26.8681 149.544 26.2092 149.414 25.5618ZM145.397 29.4586C145.106 30.2867 144.634 31.0388 144.015 31.6597C143.397 32.2805 142.647 32.7541 141.821 33.0458C141.35 33.213 140.859 33.3172 140.361 33.3555C140.205 33.3702 140.047 33.3758 139.887 33.3758C139.727 33.3758 139.571 33.3758 139.413 33.3555C138.201 33.2547 137.05 32.7761 136.123 31.9868C135.195 31.1975 134.537 30.137 134.24 28.9538C133.944 27.7705 134.023 26.5237 134.468 25.3881C134.912 24.2524 135.7 23.2847 136.72 22.6204C137.74 21.9561 138.942 21.6285 140.157 21.6835C141.372 21.7384 142.539 22.1732 143.496 22.927C144.452 23.6807 145.15 24.7157 145.491 25.8869C145.831 27.0581 145.799 28.307 145.397 29.4586Z" fill="#2A2A2A"/>
<path d="M176.534 25.5562C176.387 24.8742 176.184 24.229 175.909 23.6022C175.615 22.9018 175.229 22.2566 174.77 21.6667C174.77 21.6667 174.77 21.6667 174.751 21.6483C174.2 20.9109 173.557 20.2658 172.822 19.7128C172.804 19.7128 172.804 19.6943 172.785 19.6943C171.701 18.8464 170.378 18.2381 168.945 17.9431C168.32 17.8325 167.677 17.7588 167.016 17.7588C166.354 17.7588 165.693 17.8325 165.068 17.9616C163.653 18.2565 162.33 18.8648 161.21 19.6943C161.191 19.6943 161.191 19.7128 161.173 19.7128C160.438 20.2658 159.795 20.9109 159.244 21.6483C159.244 21.6483 159.244 21.6483 159.225 21.6667C158.784 22.2566 158.398 22.9202 158.086 23.6022C157.847 24.2105 157.627 24.8742 157.498 25.5562C157.369 26.1829 157.296 26.8281 157.296 27.5102V27.5286C157.296 28.1922 157.369 28.8374 157.48 29.4641C157.608 30.1462 157.829 30.7913 158.086 31.4181C158.38 32.1186 158.766 32.7637 159.207 33.3536C159.207 33.3536 159.207 33.3536 159.207 33.372C159.758 34.1094 160.42 34.773 161.155 35.326C162.275 36.174 163.598 36.7823 165.031 37.0772C165.472 37.1694 165.913 37.2247 166.373 37.2615H167.585C168.045 37.2431 168.486 37.1694 168.908 37.0956C170.341 36.8007 171.683 36.1924 172.804 35.3444C173.539 34.7914 174.2 34.1278 174.751 33.3905C174.751 33.3905 174.751 33.3905 174.751 33.372C175.008 33.0218 175.266 32.6347 175.468 32.2476C175.67 31.8789 175.394 31.4365 174.99 31.4365H171.83C171.554 31.4365 171.297 31.5471 171.095 31.7315C170.488 32.3213 169.754 32.7822 168.945 33.0771C168.486 33.243 167.99 33.3536 167.494 33.3905C167.438 33.3905 167.383 33.3905 167.328 33.4089C167.218 33.4089 167.126 33.4089 167.016 33.4089C166.906 33.4089 166.814 33.4089 166.703 33.4089C166.648 33.4089 166.593 33.4089 166.538 33.3905C166.024 33.3536 165.528 33.243 165.068 33.0771C164.131 32.7453 163.304 32.1739 162.661 31.455C162.165 30.8835 161.761 30.2383 161.504 29.501H175.596C176.166 29.501 176.644 29.0586 176.699 28.4871C176.736 28.1738 176.736 27.8788 176.736 27.5655V27.547C176.736 26.8281 176.662 26.1829 176.534 25.5562ZM161.522 25.5562C161.632 25.2613 161.779 24.8926 162.018 24.5055C162.147 24.2843 162.367 23.9525 162.698 23.5838C163.341 22.8649 164.168 22.3119 165.087 21.9801C165.693 21.7589 166.354 21.6483 167.034 21.6483C167.714 21.6483 168.357 21.7589 168.963 21.9801C169.901 22.3119 170.727 22.8649 171.37 23.5838C171.775 24.0262 172.105 24.5424 172.363 25.0954C172.454 25.2981 172.308 25.5378 172.087 25.5378C168.541 25.5562 165.031 25.5562 161.522 25.5562Z" fill="#2A2A2A"/>
<path d="M81.5568 8.63608V19.7202C80.391 18.8426 79.0435 18.2391 77.6139 17.9545C76.1843 17.6699 74.7092 17.7114 73.2978 18.076C71.8863 18.4405 70.5747 19.1188 69.4598 20.0607C68.3449 21.0025 67.4554 22.1837 66.8571 23.517C66.2587 24.8503 65.9668 26.3015 66.003 27.7633C66.0392 29.2251 66.4025 30.6599 67.0661 31.9618C67.7297 33.2637 68.6765 34.3992 69.8366 35.2843C70.9967 36.1695 72.3403 36.7816 73.7681 37.0754C74.2062 37.167 74.65 37.2286 75.0965 37.2598H76.3441C78.2328 37.1408 80.0452 36.4685 81.5568 35.3261V36.6939C81.5573 36.8441 81.6171 36.9881 81.7232 37.0941C81.8293 37.2002 81.9729 37.2598 82.1227 37.2598H84.8163C84.9822 37.2598 85.1413 37.1938 85.2587 37.0763C85.3761 36.9588 85.4424 36.7994 85.4429 36.633V8.68032C85.4429 8.591 85.4253 8.50255 85.3913 8.42002C85.3572 8.3375 85.3072 8.26251 85.2443 8.19935C85.1813 8.13619 85.1066 8.08608 85.0243 8.0519C84.9421 8.01772 84.8539 8.00012 84.7649 8.00012H82.1925C82.0242 8.00012 81.8628 8.06707 81.7436 8.18628C81.6245 8.30549 81.5573 8.46725 81.5568 8.63608ZM81.2297 29.4661C80.9393 30.2943 80.4673 31.0467 79.8485 31.6675C79.2296 32.2884 78.4797 32.7619 77.6541 33.0532C77.1835 33.2203 76.693 33.3244 76.1953 33.3629C76.0372 33.3777 75.8792 33.3832 75.7212 33.3832C75.5632 33.3832 75.4033 33.3832 75.2472 33.3629C74.0351 33.2634 72.8843 32.7861 71.9561 31.9978C71.0278 31.2095 70.3685 30.1498 70.0705 28.9669C69.7724 27.784 69.8505 26.5372 70.2939 25.4011C70.7373 24.265 71.5237 23.2964 72.543 22.6309C73.5624 21.9655 74.7636 21.6365 75.9786 21.6901C77.1936 21.7436 78.3615 22.177 79.3187 22.9296C80.276 23.6821 80.9747 24.7162 81.317 25.887C81.6594 27.0577 81.6282 28.3066 81.2279 29.4587L81.2297 29.4661Z" fill="#2A2A2A"/>
<path d="M154.742 8H152.254C151.869 8 151.556 8.31361 151.556 8.70048V36.5518C151.556 36.9387 151.869 37.2523 152.254 37.2523H154.742C155.128 37.2523 155.44 36.9387 155.44 36.5518V8.70048C155.44 8.31361 155.128 8 154.742 8Z" fill="#2A2A2A"/>
<path d="M106.643 25.5617C106.351 24.1295 105.742 22.7814 104.86 21.6172C103.979 20.4529 102.848 19.5023 101.552 18.8354C100.255 18.1686 98.8255 17.8027 97.3689 17.7648C95.9122 17.7268 94.4657 18.0178 93.1363 18.6162C91.8068 19.2146 90.6284 20.1051 89.6881 21.2218C88.7479 22.3386 88.0699 23.6532 87.7041 25.0682C87.3384 26.4833 87.2944 27.9627 87.5753 29.3972C87.8562 30.8316 88.4549 32.1844 89.3271 33.3554C89.8824 34.0991 90.54 34.76 91.2802 35.3186C92.4289 36.1875 93.7566 36.7877 95.1663 37.0753C95.6091 37.1688 96.0579 37.2304 96.5094 37.2597H97.7258C98.1704 37.2341 98.6125 37.1762 99.0487 37.0864C100.465 36.8007 101.8 36.199 102.953 35.326V36.5518C102.953 36.6449 102.971 36.7371 103.007 36.8231C103.043 36.9091 103.095 36.9872 103.16 37.053C103.226 37.1187 103.304 37.1709 103.39 37.2063C103.476 37.2418 103.568 37.2599 103.661 37.2597H106.158C106.338 37.2597 106.512 37.1876 106.64 37.0594C106.767 36.9311 106.839 36.7572 106.839 36.5758V27.5286C106.84 26.868 106.774 26.209 106.643 25.5617ZM102.626 29.4586C102.335 30.2868 101.863 31.0391 101.244 31.6602C100.626 32.2813 99.876 32.7554 99.0506 33.0476C98.5803 33.2135 98.0905 33.317 97.5935 33.3554C97.4355 33.3702 97.2775 33.3757 97.1195 33.3757C96.9614 33.3757 96.8016 33.3757 96.6454 33.3554C96.1439 33.315 95.6497 33.209 95.1755 33.0402C93.8785 32.5784 92.7858 31.6716 92.0905 30.48C91.3951 29.2884 91.1418 27.8887 91.3752 26.5279C91.6087 25.1672 92.3138 23.9329 93.3662 23.0431C94.4186 22.1533 95.7505 21.6651 97.1268 21.6648C98.0594 21.6651 98.9783 21.8894 99.8068 22.3189C100.635 22.7485 101.349 23.3708 101.889 24.1338C102.428 24.8968 102.778 25.7784 102.909 26.7047C103.039 27.6311 102.947 28.5754 102.639 29.4586H102.626Z" fill="#2A2A2A"/>
<path d="M190.444 31.5433C190.443 31.5024 190.455 31.4622 190.479 31.4291C190.493 31.4138 190.51 31.4016 190.528 31.3933C190.547 31.3851 190.567 31.3809 190.588 31.3811H194.079C194.131 31.3816 194.181 31.4002 194.221 31.4338C194.261 31.4675 194.288 31.514 194.297 31.5655C194.665 33.3019 195.951 34.3213 198.34 34.3213C200.673 34.3213 202.071 33.3554 202.071 31.8346V31.8162C202.071 30.5995 201.39 29.9027 199.363 29.4198L196.278 28.723C192.69 27.899 190.913 26.1828 190.913 23.4436V23.427C190.913 20.0629 193.853 17.755 198.196 17.755C202.663 17.755 205.362 20.2417 205.546 23.4436C205.549 23.4709 205.545 23.4984 205.537 23.5243C205.528 23.5503 205.514 23.5742 205.496 23.5945C205.478 23.6148 205.455 23.631 205.43 23.6422C205.405 23.6533 205.378 23.6592 205.351 23.6593H202.15C202.089 23.6595 202.03 23.6382 201.983 23.5991C201.936 23.56 201.904 23.5057 201.893 23.4455C201.81 22.9194 201.598 22.4223 201.276 21.9984C200.218 20.6196 198.417 20.7283 198.193 20.7283C196.113 20.7283 194.803 21.7127 194.803 23.215V23.2335C194.803 24.3966 195.574 25.1837 197.601 25.6667L200.67 26.3635C200.978 26.3819 204.036 26.6124 205.393 29.0142C205.823 29.7628 206.032 30.6179 205.996 31.4807C205.917 33.1047 204.644 34.513 204.39 34.7858C202.307 37.0236 199.301 37.2412 198.182 37.2449C196.468 37.2426 194.786 36.7778 193.313 35.8992C192.339 35.3382 191.539 34.5185 190.999 33.5305C190.657 32.923 190.466 32.241 190.444 31.5433Z" fill="#2A2A2A"/>
<path d="M232.873 21.6648H229.952C229.696 21.6572 229.453 21.5496 229.276 21.365C229.098 21.1804 228.999 20.9335 229 20.6768V18.7394C229 18.609 229.026 18.4799 229.075 18.3595C229.125 18.239 229.198 18.1296 229.29 18.0375C229.382 17.9454 229.491 17.8724 229.612 17.8227C229.732 17.7729 229.86 17.7475 229.99 17.7477H232.873V8.81478C232.873 8.70741 232.894 8.60105 232.935 8.50184C232.976 8.40264 233.036 8.31256 233.112 8.2368C233.188 8.16105 233.278 8.10112 233.377 8.06048C233.476 8.01984 233.582 7.99929 233.689 8.00002H235.966C236.174 8.00002 236.373 8.08295 236.52 8.23056C236.667 8.37817 236.75 8.57838 236.75 8.78713V17.7477H239.615C239.884 17.7467 240.143 17.8522 240.335 18.0413C240.527 18.2303 240.637 18.4878 240.642 18.7579V20.6676C240.642 20.9321 240.537 21.1857 240.351 21.3728C240.164 21.5598 239.911 21.6648 239.648 21.6648H236.745V29.4623C236.743 29.9758 236.842 30.4846 237.036 30.9597C237.23 31.4349 237.516 31.8669 237.876 32.2312C238.237 32.5955 238.666 32.8849 239.138 33.0829C239.61 33.2808 240.117 33.3835 240.629 33.3849V37.256C239.518 37.2723 238.417 37.0465 237.402 36.5942C237.086 36.4523 234.707 35.3481 233.529 32.6955C233.079 31.6793 232.851 30.578 232.86 29.466C232.882 26.9 232.857 24.2253 232.873 21.6648Z" fill="#2A2A2A"/>
<path d="M296.238 25.5562C296.091 24.8742 295.888 24.229 295.613 23.6022C295.319 22.9018 294.933 22.2566 294.474 21.6667C294.474 21.6667 294.474 21.6667 294.455 21.6483C293.904 20.9109 293.261 20.2658 292.526 19.7128C292.508 19.7128 292.508 19.6943 292.489 19.6943C291.405 18.8464 290.082 18.2381 288.649 17.9431C288.024 17.8325 287.381 17.7588 286.72 17.7588C286.058 17.7588 285.397 17.8325 284.772 17.9616C283.357 18.2565 282.034 18.8648 280.914 19.6943C280.895 19.6943 280.895 19.7128 280.877 19.7128C280.142 20.2658 279.499 20.9109 278.948 21.6483C278.948 21.6483 278.948 21.6483 278.929 21.6667C278.488 22.2566 278.102 22.9202 277.79 23.6022C277.551 24.2106 277.331 24.8742 277.202 25.5562C277.073 26.1829 277 26.8281 277 27.5102V27.5286C277 28.1922 277.073 28.8374 277.184 29.4641C277.312 30.1462 277.533 30.7913 277.79 31.4181C278.084 32.1186 278.47 32.7637 278.911 33.3536C278.911 33.3536 278.911 33.3536 278.911 33.3721C279.462 34.1094 280.124 34.773 280.859 35.326C281.979 36.174 283.302 36.7823 284.735 37.0772C285.176 37.1694 285.617 37.2247 286.077 37.2615H287.289C287.749 37.2431 288.19 37.1694 288.612 37.0956C290.046 36.8007 291.387 36.1924 292.508 35.3445C293.243 34.7914 293.904 34.1278 294.455 33.3905C294.455 33.3905 294.455 33.3905 294.455 33.3721C294.712 33.0218 294.97 32.6347 295.172 32.2476C295.374 31.8789 295.098 31.4365 294.694 31.4365H291.534C291.258 31.4365 291.001 31.5471 290.799 31.7315C290.193 32.3213 289.458 32.7822 288.649 33.0771C288.19 33.243 287.694 33.3536 287.198 33.3905C287.142 33.3905 287.087 33.3905 287.032 33.4089C286.922 33.4089 286.83 33.4089 286.72 33.4089C286.61 33.4089 286.518 33.4089 286.407 33.4089C286.352 33.4089 286.297 33.4089 286.242 33.3905C285.728 33.3536 285.232 33.243 284.772 33.0771C283.835 32.7453 283.008 32.1739 282.365 31.455C281.869 30.8835 281.465 30.2383 281.208 29.501H295.3C295.87 29.501 296.348 29.0586 296.403 28.4871C296.44 28.1738 296.44 27.8788 296.44 27.5655V27.547C296.44 26.8281 296.366 26.1829 296.238 25.5562ZM281.226 25.5562C281.336 25.2613 281.483 24.8926 281.722 24.5055C281.851 24.2843 282.071 23.9525 282.402 23.5838C283.045 22.8649 283.872 22.3119 284.791 21.9801C285.397 21.7589 286.058 21.6483 286.738 21.6483C287.418 21.6483 288.061 21.7589 288.667 21.9801C289.605 22.3119 290.431 22.8649 291.074 23.5838C291.479 24.0262 291.809 24.5424 292.067 25.0954C292.159 25.2981 292.012 25.5378 291.791 25.5378C288.245 25.5562 284.735 25.5562 281.226 25.5562Z" fill="#2A2A2A"/>
<path d="M212 31.5433C211.999 31.5024 212.011 31.4622 212.035 31.4291C212.049 31.4138 212.065 31.4016 212.084 31.3933C212.103 31.3851 212.123 31.3809 212.143 31.3811H215.634C215.687 31.3816 215.737 31.4002 215.777 31.4338C215.817 31.4675 215.844 31.514 215.853 31.5655C216.221 33.3019 217.507 34.3213 219.895 34.3213C222.229 34.3213 223.627 33.3554 223.627 31.8346V31.8162C223.627 30.5995 222.945 29.9027 220.919 29.4198L217.834 28.723C214.245 27.899 212.469 26.1828 212.469 23.4436V23.427C212.469 20.0629 215.408 17.755 219.752 17.755C224.219 17.755 226.918 20.2417 227.102 23.4436C227.104 23.4709 227.101 23.4984 227.092 23.5243C227.084 23.5503 227.07 23.5742 227.052 23.5945C227.033 23.6148 227.011 23.631 226.986 23.6422C226.961 23.6533 226.934 23.6592 226.907 23.6593H223.706C223.645 23.6595 223.586 23.6382 223.539 23.5991C223.492 23.56 223.46 23.5057 223.449 23.4455C223.365 22.9194 223.153 22.4223 222.832 21.9984C221.773 20.6196 219.973 20.7283 219.748 20.7283C217.668 20.7283 216.358 21.7127 216.358 23.215V23.2335C216.358 24.3966 217.13 25.1837 219.157 25.6667L222.225 26.3635C222.534 26.3819 225.591 26.6124 226.949 29.0142C227.378 29.7628 227.587 30.6179 227.552 31.4807C227.473 33.1047 226.199 34.513 225.946 34.7858C223.862 37.0236 220.856 37.2412 219.737 37.2449C218.023 37.2426 216.342 36.7778 214.868 35.8992C213.895 35.3382 213.094 34.5185 212.555 33.5305C212.212 32.923 212.022 32.241 212 31.5433Z" fill="#2A2A2A"/>
<path d="M269.236 20.584C270.532 18.568 272.812 17.56 276.076 17.56V21.844C275.692 21.772 275.344 21.736 275.032 21.736C273.28 21.736 271.912 22.252 270.928 23.284C269.944 24.292 269.452 25.756 269.452 27.676V37H264.952V17.776H269.236V20.584Z" fill="#2A2A2A"/>
<path fill-rule="evenodd" clip-rule="evenodd" d="M253 37C258.523 37 263 32.5228 263 27C263 21.4772 258.523 17 253 17C247.477 17 243 21.4772 243 27C243 32.5228 247.477 37 253 37ZM253 33C256.314 33 259 30.3137 259 27C259 23.6863 256.314 21 253 21C249.686 21 247 23.6863 247 27C247 30.3137 249.686 33 253 33Z" fill="#2A2A2A"/>
<circle cx="209" cy="35" r="2" fill="#2A2A2A"/>
</svg>
