<svg width="17" height="18" viewBox="0 0 17 18" fill="none" xmlns="http://www.w3.org/2000/svg">
<g clip-path="url(#clip0_4256_13826)">
<path d="M1.21436 4.09082H2.8334H15.7858" stroke="white" stroke-width="1.5" stroke-linecap="round" stroke-linejoin="round"/>
<path d="M14.1668 4.09109V15.5456C14.1668 15.9796 13.9963 16.3958 13.6926 16.7027C13.389 17.0096 12.9772 17.182 12.5478 17.182H4.45254C4.02315 17.182 3.61133 17.0096 3.3077 16.7027C3.00407 16.3958 2.8335 15.9796 2.8335 15.5456V4.09109M5.26207 4.09109V2.45472C5.26207 2.02073 5.43265 1.60452 5.73628 1.29764C6.03991 0.990761 6.45172 0.818359 6.88111 0.818359H10.1192C10.5486 0.818359 10.9604 0.990761 11.264 1.29764C11.5677 1.60452 11.7383 2.02073 11.7383 2.45472V4.09109" stroke="white" stroke-width="1.5" stroke-linecap="round" stroke-linejoin="round"/>
<path d="M6.88086 8.18164V13.0907" stroke="white" stroke-width="1.5" stroke-linecap="round" stroke-linejoin="round"/>
<path d="M10.1191 8.18164V13.0907" stroke="white" stroke-width="1.5" stroke-linecap="round" stroke-linejoin="round"/>
</g>
<defs>
<clipPath id="clip0_4256_13826">
<rect width="17" height="18" fill="white"/>
</clipPath>
</defs>
</svg>
