<svg width="17" height="16" viewBox="0 0 17 16" fill="none" xmlns="http://www.w3.org/2000/svg">
<g clip-path="url(#clip0_3098_35472)">
<path d="M11.1665 14V12.6667C11.1665 11.9594 10.8856 11.2811 10.3855 10.781C9.88536 10.281 9.20708 10 8.49984 10H3.83317C3.12593 10 2.44765 10.281 1.94755 10.781C1.44746 11.2811 1.1665 11.9594 1.1665 12.6667V14" stroke="white" stroke-width="1.5" stroke-linecap="round" stroke-linejoin="round"/>
<path d="M6.16667 7.33333C7.63943 7.33333 8.83333 6.13943 8.83333 4.66667C8.83333 3.19391 7.63943 2 6.16667 2C4.69391 2 3.5 3.19391 3.5 4.66667C3.5 6.13943 4.69391 7.33333 6.16667 7.33333Z" stroke="white" stroke-width="1.5" stroke-linecap="round" stroke-linejoin="round"/>
<path d="M11.8335 7.33333L13.1668 8.66667L15.8335 6" stroke="white" stroke-width="1.5" stroke-linecap="round" stroke-linejoin="round"/>
</g>
<defs>
<clipPath id="clip0_3098_35472">
<rect width="16" height="16" fill="white" transform="translate(0.5)"/>
</clipPath>
</defs>
</svg>
