<svg width="30" height="30" viewBox="0 0 41 41" fill="#919191" xmlns="http://www.w3.org/2000/svg">
<path d="M20.8939 0.00244141C9.84928 0.00244141 0.893921 8.9578 0.893921 20.0024C0.893921 31.0471 9.84928 40.0024 20.8939 40.0024C31.9386 40.0024 40.8939 31.0471 40.8939 20.0024C40.8939 8.9578 31.9386 0.00244141 20.8939 0.00244141ZM30.5055 15.0783C30.5189 15.2882 30.5189 15.5069 30.5189 15.7212C30.5189 22.2748 25.5279 29.8239 16.4073 29.8239C13.5948 29.8239 10.9877 29.0069 8.79124 27.6007C9.19303 27.6453 9.57696 27.6632 9.98767 27.6632C12.3091 27.6632 14.443 26.8774 16.1439 25.5471C13.9654 25.5024 12.135 24.0739 11.51 22.1096C12.2734 22.2212 12.9609 22.2212 13.7466 22.0203C12.6248 21.7924 11.6166 21.1832 10.8931 20.2961C10.1696 19.4091 9.77556 18.2989 9.77785 17.1542V17.0917C10.4341 17.4623 11.2064 17.6899 12.0145 17.7212C11.3352 17.2685 10.7781 16.6552 10.3926 15.9356C10.0072 15.2161 9.80519 14.4125 9.80464 13.5962C9.80464 12.6721 10.0457 11.8283 10.4787 11.0962C11.7238 12.6289 13.2775 13.8825 15.0389 14.7755C16.8002 15.6685 18.7297 16.1808 20.702 16.2792C20.0011 12.9087 22.5189 10.181 25.5457 10.181C26.9743 10.181 28.26 10.7792 29.1662 11.7435C30.2868 11.5337 31.3582 11.114 32.3136 10.5515C31.943 11.6989 31.1662 12.6676 30.135 13.2792C31.135 13.1721 32.0993 12.8953 32.9921 12.5069C32.318 13.498 31.4743 14.3774 30.5055 15.0783Z" >
</path>
</svg>