<svg width="300" height="200" viewBox="0 0 300 200" fill="none" xmlns="http://www.w3.org/2000/svg">
<path d="M197.571 185.959C195.291 196.129 181.891 199.419 142.911 198.829C103.911 199.419 90.531 196.129 88.261 185.959C86.001 172.869 91.521 170.359 100.201 154.379C102.718 149.692 104.819 144.793 106.481 139.739C107.731 135.969 108.711 132.349 109.481 129.089C109.951 127.089 110.311 125.219 110.621 123.529C110.821 122.349 111.001 121.269 111.151 120.289C111.151 120.069 111.221 119.859 111.241 119.639C111.321 119.149 111.381 118.639 111.441 118.249C111.501 117.859 111.541 117.409 111.581 117.049C111.791 115.279 111.851 114.269 111.851 114.269L116.351 114.119L118.351 114.039L122.921 113.879L138.791 113.309C138.791 113.119 138.791 113.009 138.791 113.009L142.951 113.169L147.111 113.009C147.111 113.009 147.111 113.119 147.111 113.309L170.191 114.139L173.001 114.239H174.001C174.001 114.239 174.001 114.459 174.051 114.839C174.051 115.029 174.051 115.279 174.111 115.569C174.161 116.119 174.231 116.839 174.331 117.719C174.331 118.069 174.411 118.449 174.461 118.859C174.601 120.079 174.781 121.509 175.011 123.119C175.091 123.649 175.171 124.209 175.261 124.779C175.441 125.972 175.651 127.242 175.891 128.589C176.451 131.799 177.171 135.419 178.081 139.299C178.081 139.419 178.151 139.559 178.181 139.689C178.348 140.409 178.528 141.139 178.721 141.879C179.721 145.879 180.931 150.049 182.371 154.329C187.501 169.499 199.761 173.399 197.571 185.959Z" fill="#9292A3"/>
<path d="M86.0208 63.2189C84.3008 58.9189 83.7908 53.9989 83.0208 46.4489C81.8908 35.2889 81.3408 26.0389 80.8308 20.3389C80.1708 13.0089 84.1908 14.4489 87.0608 15.6189C92.2008 17.7189 99.4708 22.6189 103.171 25.3089C108.931 29.4589 117.971 41.2389 117.731 46.6989C112.011 53.8989 101.691 61.2689 86.0208 63.2189Z" fill="#9292A3"/>
<g style="mix-blend-mode:multiply" opacity="0.5">
<path d="M117.731 46.6989C117.451 47.0522 117.161 47.4022 116.861 47.7489C114.951 41.7489 107.681 32.7489 102.781 29.1889C99.0911 26.5189 91.7811 21.5989 86.6711 19.4989C84.5611 18.6389 81.8611 17.6289 80.8111 20.0289C80.2811 13.0289 84.2211 14.4589 87.0611 15.6189C92.2011 17.7189 99.4711 22.6189 103.171 25.3089C108.931 29.4989 117.961 41.2489 117.731 46.6989Z" fill="#9292A3"/>
</g>
<path d="M90.9707 62.3889C89.7107 59.0789 90.1507 54.7589 89.4407 49.0089C88.3907 40.4889 87.7707 33.4489 87.2807 29.0989C86.6507 23.5089 89.3507 24.7089 91.2807 25.6789C94.7407 27.4189 99.6907 31.3589 102.211 33.4789C106.141 36.7889 114.051 46.5689 114.041 50.7089C110.451 56.0289 101.291 61.3289 90.9707 62.3889Z" fill="#DF98B1"/>
<g style="mix-blend-mode:multiply" opacity="0.35">
<path d="M113.971 50.0089C111.446 46.148 108.45 42.6174 105.051 39.4989C102.531 37.3789 97.5807 33.4389 94.1207 31.7089C92.1907 30.7089 89.4907 29.5289 90.1207 35.1189C90.6107 39.4689 91.2207 46.5189 92.2807 55.0289C92.6107 57.7089 92.6907 60.0289 92.8107 62.1689C92.2007 62.2689 91.5807 62.3489 90.9707 62.4089C89.7107 59.0989 90.1507 54.7789 89.4407 49.0189C88.3907 40.5089 87.7707 33.4689 87.2807 29.1189C86.6507 23.5289 89.3507 24.7289 91.2807 25.6989C94.7507 27.4289 99.6907 31.3789 102.221 33.4989C105.931 36.6189 113.221 45.5489 113.971 50.0089Z" fill="#A62E8C"/>
</g>
<path d="M172.711 39.6689C174.931 48.6689 202.451 64.6689 206.301 61.3289C209.091 58.9389 209.441 44.5989 209.541 40.9489C209.851 29.7589 208.421 21.9489 209.421 17.7489C210.421 13.5489 207.161 9.50892 200.051 13.8989C192.941 18.2889 180.491 27.7089 172.711 39.6689Z" fill="#3D243E"/>
<path d="M172.711 39.6689C174.931 48.6689 202.451 64.6689 206.301 61.3289C209.091 58.9389 209.441 44.5989 209.541 40.9489C209.851 29.7589 208.421 21.9489 209.421 17.7489C210.421 13.5489 207.161 9.50892 200.051 13.8989C192.941 18.2889 180.491 27.7089 172.711 39.6689Z" fill="#3D243E"/>
<path d="M172.711 39.6689C174.931 48.6689 202.451 64.6689 206.301 61.3289C209.091 58.9389 209.441 44.5989 209.541 40.9489C209.851 29.7589 208.421 21.9489 209.421 17.7489C210.421 13.5489 207.161 9.50892 200.051 13.8989C192.941 18.2889 180.491 27.7089 172.711 39.6689Z" fill="#9292A3"/>
<g style="mix-blend-mode:multiply" opacity="0.5">
<path d="M206.301 61.3289C205.715 61.7256 204.997 61.8764 204.301 61.7489C206.061 57.0489 206.301 46.3589 206.401 43.2789C206.711 32.0889 205.291 24.2789 206.281 20.0889C207.271 15.8989 204.021 11.8389 196.911 16.2289C195.311 17.2289 193.451 18.4589 191.431 19.9189C194.177 17.765 197.038 15.762 200.001 13.9189C207.111 9.52894 210.361 13.569 209.371 17.769C208.381 21.969 209.801 29.7689 209.491 40.9689C209.441 44.5989 209.091 58.9389 206.301 61.3289Z" fill="#9292A3"/>
</g>
<path d="M175.651 44.5589C176.971 49.9089 195.091 61.6089 197.391 59.6389C199.051 58.2089 202.391 46.4589 203.161 38.2389C203.811 31.5989 202.491 26.9189 203.091 24.4189C203.691 21.9189 201.741 19.5089 197.501 22.1189C193.261 24.7289 180.281 37.4289 175.651 44.5589Z" fill="#DF98B1"/>
<g style="mix-blend-mode:multiply" opacity="0.35">
<path d="M203.161 38.2389C202.351 46.4689 199.051 58.2389 197.391 59.6389C197.236 59.7607 197.048 59.8338 196.851 59.8489C198.505 54.5625 199.657 49.1318 200.291 43.6289C200.941 36.9889 199.621 32.3089 200.211 29.7989C200.801 27.2889 198.871 24.8889 194.631 27.5089C191.181 29.6389 181.871 38.5089 176.051 45.5689C175.884 45.2501 175.75 44.9151 175.651 44.5689C180.281 37.4389 193.271 24.7489 197.511 22.1289C201.751 19.5089 203.681 21.9189 203.091 24.4289C202.501 26.9389 203.821 31.5989 203.161 38.2389Z" fill="#A62E8C"/>
</g>
<path d="M215.081 87.0589C215.342 93.7441 213.544 100.348 209.931 105.979C207.702 109.457 204.973 112.587 201.831 115.269C201.211 115.799 200.591 116.319 199.941 116.819C199.291 117.319 198.651 117.819 197.941 118.289C197.441 118.639 196.941 118.999 196.411 119.289C195.881 119.579 195.411 119.969 194.841 120.289C193.201 121.309 191.511 122.249 189.771 123.109L189.481 123.239L188.871 123.499L188.441 123.659L188.041 123.799C187.628 123.939 187.178 124.079 186.691 124.219L185.691 124.489L184.871 124.699L184.331 124.829L182.781 125.169L180.781 125.559C179.891 125.739 178.961 125.899 177.991 126.059L177.101 126.199L175.511 126.439H175.391H175.281L173.891 126.639L172.191 126.869H171.981H171.911L169.351 127.179L167.841 127.359L166.381 127.509L165.241 127.629L163.001 127.849L161.051 128.019L160.051 128.099L157.051 128.329L155.051 128.469L152.311 128.639L151.071 128.709L149.981 128.759L148.171 128.839L146.701 128.899L144.901 128.949H143.631H142.071C134.051 129.216 126.022 128.805 118.071 127.719L117.071 127.559L116.141 127.429L113.741 127.119H113.661L113.301 127.069L111.741 126.889L110.091 126.689L108.491 126.489L107.071 126.289H106.891C106.361 126.209 105.831 126.129 105.301 126.029C104.771 125.929 104.241 125.849 103.711 125.739L102.191 125.399H102.091C101.651 125.289 101.211 125.179 100.771 125.049L100.581 124.999C97.3509 124.074 94.277 122.672 91.461 120.839C91.001 120.539 90.5409 120.229 90.1009 119.909C89.6609 119.589 89.2409 119.259 88.8209 118.909C88.3209 118.529 87.8209 118.119 87.3609 117.689L87.0909 117.439C85.2014 115.737 83.4862 113.851 81.9709 111.809C81.0391 110.552 80.2854 109.172 79.7309 107.709C77.2909 101.439 77.9709 93.7089 78.6709 87.3689C79.0009 84.3189 79.4609 81.3089 79.9109 78.2789C80.7447 72.4204 82.6354 66.7619 85.491 61.5789C86.752 59.308 88.2395 57.1704 89.9309 55.1989C90.5984 54.4097 91.306 53.6554 92.051 52.9389C93.8684 51.1377 95.8808 49.5446 98.051 48.1889C101.407 46.1776 104.926 44.4515 108.571 43.0289L110.051 42.4389C111.171 41.9989 112.321 41.5789 113.491 41.1789C114.221 40.9289 114.971 40.6789 115.731 40.4489C121.665 38.5966 127.747 37.2584 133.911 36.4489C139.48 35.717 145.094 35.3828 150.711 35.4489C153.411 35.4489 156.121 35.5289 158.821 35.6489C164.001 35.8218 169.159 36.3935 174.251 37.3589C176.201 37.7522 178.13 38.2428 180.031 38.8289C180.551 38.9789 181.031 39.1489 181.581 39.3189C186.826 41.0559 191.695 43.7704 195.931 47.3189C197.044 48.2656 198.128 49.2889 199.181 50.3889C199.491 50.7089 199.791 51.0389 200.091 51.3889C200.091 51.3889 200.091 51.3889 200.141 51.4389C200.191 51.4889 200.351 51.6789 200.451 51.8089C200.551 51.9389 200.711 52.0989 200.831 52.2489C201.151 52.6089 201.451 52.9789 201.761 53.3689C202.091 53.7789 202.411 54.1889 202.761 54.6289L203.261 55.3189L203.421 55.5389C203.621 55.8189 203.801 56.1089 204.001 56.3989C204.201 56.6889 204.381 56.9589 204.561 57.2489C204.741 57.5389 204.781 57.5789 204.881 57.7489L205.161 58.1789L205.461 58.6989C205.701 59.0989 205.941 59.4889 206.171 59.8989L206.661 60.7789C207.581 62.4389 208.411 64.0589 209.171 65.6389C209.761 66.8789 210.301 68.0989 210.791 69.2889C211.041 69.8889 211.271 70.4789 211.501 71.0689C211.731 71.6589 211.941 72.2389 212.141 72.8089C212.341 73.3789 212.531 73.9689 212.711 74.5289C212.891 75.0889 213.131 75.9289 213.321 76.6189C213.511 77.3089 213.691 77.9889 213.841 78.6689C214.151 80.0089 214.391 81.3289 214.581 82.6089C214.581 82.8889 214.661 83.1589 214.691 83.4489C214.691 83.7189 214.761 84.0089 214.781 84.2889V84.5189V84.7589C214.781 84.8789 214.781 84.9889 214.781 85.0989V85.4489C214.961 86.0022 215.061 86.5389 215.081 87.0589Z" fill="#9292A3"/>
<path d="M133.331 83.8889L133.051 80.8889C132.961 79.2989 131.911 79.1289 131.341 80.7689L131.171 81.5089C130.771 83.6989 129.991 84.2989 127.701 83.8789L85.7009 77.6689C83.9309 77.2989 83.9309 80.5489 85.2609 80.6689L130.171 86.8889C131.931 87.1889 133.341 86.2389 133.331 83.8889Z" fill="#1D111E"/>
<path d="M131.571 87.1289C129.691 118.549 82.4707 113.799 86.0407 80.8289L131.571 87.1289Z" fill="#FABD3C"/>
<g style="mix-blend-mode:multiply" opacity="0.9">
<path d="M131.401 88.959C127.881 117.879 83.9312 113.299 85.9012 82.319C87.6912 108.289 124.721 112.279 131.401 88.959Z" fill="#FABD3C"/>
</g>
<path d="M125.161 86.019C123.811 108.649 89.801 105.229 92.371 81.489L125.161 86.019Z" fill="#1D111E"/>
<path d="M98.1608 87.4289C92.1608 89.5889 89.6108 93.9489 92.2308 94.5689C94.8508 95.1889 99.0408 90.6389 99.9708 89.7489C101.861 87.9389 101.351 86.2889 98.1608 87.4289Z" fill="white"/>
<path d="M99.701 93.8689C95.571 95.3389 93.851 98.3289 95.651 98.7389C97.451 99.1489 100.301 96.0589 100.941 95.4489C102.231 94.2089 101.881 93.0889 99.701 93.8689Z" fill="white"/>
<path d="M200.301 80.409L155.411 86.619C152.591 86.979 151.511 86.0689 151.661 83.0389C151.661 82.4289 151.881 80.589 151.881 80.589C151.991 78.759 153.351 79.529 153.571 80.469C153.981 83.759 155.991 83.829 158.051 83.529L200.051 77.329C202.311 77.039 202.441 80.179 200.301 80.409Z" fill="#1D111E"/>
<path d="M153.451 86.8989C155.331 118.309 202.551 113.559 198.981 80.5989L153.451 86.8989Z" fill="#FABD3C"/>
<g style="mix-blend-mode:multiply" opacity="0.9">
<path d="M153.981 90.9989C161.841 112.739 197.731 108.209 199.131 82.4689C200.671 112.259 159.451 117.269 153.981 90.9989Z" fill="#FABD3C"/>
</g>
<path d="M159.841 85.7889C161.201 108.409 195.211 104.989 192.641 81.2489L159.841 85.7889Z" fill="#1D111E"/>
<path d="M186.851 87.199C192.901 89.359 195.401 93.719 192.781 94.329C190.161 94.939 185.971 90.3989 185.041 89.5089C183.151 87.6989 183.661 86.049 186.851 87.199Z" fill="white"/>
<path d="M185.311 93.6289C189.441 95.1089 191.151 98.0889 189.361 98.5089C187.571 98.9289 184.711 95.8189 184.071 95.2089C182.781 93.9789 183.121 92.8489 185.311 93.6289Z" fill="white"/>
<path d="M146.901 95.2889C146.361 93.9589 137.991 93.9589 137.131 95.6389C136.461 96.9489 139.911 101.559 142.011 101.549C143.631 101.499 147.621 97.0389 146.901 95.2889Z" fill="#2D2D2D"/>
<g style="mix-blend-mode:multiply">
<path d="M142.021 101.549C140.351 101.549 137.841 98.6689 137.201 96.8189C138.261 98.2589 139.791 99.6089 140.931 99.5989C142.231 99.5989 145.051 96.6989 145.751 94.6489C146.371 94.8089 146.751 95.0189 146.901 95.2889C147.621 97.0389 143.631 101.499 142.021 101.549Z" fill="black"/>
</g>
<g style="mix-blend-mode:multiply" opacity="0.5">
<path d="M219.911 107.499C219.442 106.921 218.786 106.524 218.056 106.376C217.326 106.229 216.568 106.339 215.911 106.689C215.401 106.979 214.981 107.399 214.461 107.689C214.213 107.844 213.924 107.922 213.632 107.911C213.339 107.9 213.057 107.802 212.821 107.629C212.633 107.407 212.468 107.165 212.331 106.909C212.053 106.574 211.694 106.316 211.288 106.158C210.882 106.001 210.442 105.949 210.011 106.009H209.941C209.108 106.144 208.295 106.382 207.521 106.719C205.797 107.305 204.018 107.714 202.211 107.939C200.771 108.129 199.311 108.249 197.851 108.359C196.711 108.459 195.571 108.539 194.451 108.659C186.061 109.509 180.641 112.759 172.381 111.109" stroke="#1D111E" stroke-width="0.68" stroke-linecap="round" stroke-linejoin="round"/>
</g>
<g style="mix-blend-mode:multiply" opacity="0.5">
<path d="M217.051 118.869C215.882 119.272 214.632 119.381 213.411 119.185C212.19 118.99 211.036 118.497 210.051 117.749C209.411 117.249 208.721 116.609 207.921 116.749C207.635 116.818 207.367 116.944 207.131 117.119C205.791 118.039 204.591 119.369 202.981 119.569C201.804 119.606 200.636 119.352 199.581 118.829C199.081 118.639 198.581 118.449 197.971 118.279C196.971 117.969 195.801 117.679 194.571 117.419C193.571 117.199 192.491 116.999 191.381 116.819C185.103 115.779 178.742 115.334 172.381 115.489" stroke="#1D111E" stroke-width="0.68" stroke-linecap="round" stroke-linejoin="round"/>
</g>
<g style="mix-blend-mode:multiply" opacity="0.5">
<path d="M170.941 120.159H171.051C171.781 120.309 172.631 120.459 173.561 120.609L175.401 120.899L178.901 121.439L181.501 121.879C183.986 122.277 186.444 122.828 188.861 123.529V123.529C189.716 123.782 190.551 124.096 191.361 124.469C193.421 125.469 195.521 126.709 197.811 126.569C199.031 126.499 200.231 126.019 201.441 126.189C203.061 126.409 204.381 127.739 206.011 127.909C207.301 128.029 208.571 127.399 209.861 127.499C210.743 127.669 211.614 127.89 212.471 128.159C214.091 128.469 216.161 128.089 217.031 129.479" stroke="#1D111E" stroke-width="0.68" stroke-linecap="round" stroke-linejoin="round"/>
</g>
<g style="mix-blend-mode:screen" opacity="0.65">
<path d="M142.811 94.9989C141.152 94.5935 139.401 94.8632 137.941 95.7489C137.691 95.9189 137.771 96.4289 138.111 96.4389C138.85 96.3818 139.581 96.2443 140.291 96.0289C141.086 95.9028 141.887 95.826 142.691 95.7989C143.081 95.7689 143.211 95.1189 142.811 94.9989Z" fill="#AFAFAF"/>
</g>
<path style="mix-blend-mode:color-dodge" d="M181.251 121.899C190.557 121.899 198.101 116.723 198.101 110.339C198.101 103.955 190.557 98.7789 181.251 98.7789C171.945 98.7789 164.401 103.955 164.401 110.339C164.401 116.723 171.945 121.899 181.251 121.899Z" fill="url(#paint0_radial_2348_10272)"/>
<g style="mix-blend-mode:screen" opacity="0.43">
<path d="M129.161 81.6789C125.221 81.6789 121.231 80.4389 117.391 79.6189C113.701 78.8289 109.971 77.8589 106.221 77.3889C105.701 77.3289 105.631 78.1389 106.101 78.2789C110.041 79.4989 114.201 80.1789 118.231 81.0389L124.021 82.2789C125.711 82.6389 127.591 83.2789 129.301 82.7289C129.419 82.6886 129.52 82.6085 129.586 82.5023C129.651 82.3961 129.678 82.2703 129.662 82.1464C129.645 82.0226 129.586 81.9083 129.495 81.823C129.404 81.7378 129.285 81.6868 129.161 81.6789Z" fill="#3D243E"/>
</g>
<g style="mix-blend-mode:screen" opacity="0.43">
<path d="M199.501 75.4989C192.271 75.7089 185.001 77.2089 177.861 78.2289L166.861 79.7989C164.861 80.0889 155.181 82.3589 155.261 78.7989C155.261 78.1989 154.261 78.0289 154.181 78.6589C153.671 82.1489 158.241 81.9889 160.491 81.8189C164.721 81.4989 168.931 80.7089 173.121 80.1089C181.881 78.8489 190.661 77.2889 199.491 76.6689C200.251 76.6289 200.271 75.4989 199.501 75.4989Z" fill="#3D243E"/>
</g>
<path d="M131.341 39.5689C134.511 35.0389 142.461 28.5089 144.631 30.2089C145.221 30.7589 142.441 33.2889 142.061 35.1189C145.061 33.0089 151.811 28.1189 151.741 30.1789C151.811 31.1789 150.361 33.1289 149.671 34.6089C151.251 33.1289 158.671 28.7889 158.971 30.9189C159.241 33.0623 159.081 35.238 158.501 37.3189L142.261 39.3189L131.341 39.5689Z" fill="#9292A3"/>
<g style="mix-blend-mode:multiply" opacity="0.5">
<path d="M215.081 87.0589C215.342 93.7441 213.544 100.348 209.931 105.979C207.703 109.457 204.973 112.587 201.831 115.269C201.211 115.799 200.591 116.319 199.941 116.819C199.291 117.319 198.641 117.819 197.941 118.279C197.441 118.639 196.941 118.989 196.421 119.339C195.901 119.689 195.421 120.019 194.851 120.339C193.211 121.352 191.521 122.289 189.781 123.149L189.491 123.289L188.881 123.549L188.451 123.709L188.051 123.849C187.638 123.989 187.188 124.129 186.701 124.269L185.701 124.539L184.881 124.749L184.341 124.879L182.791 125.219L180.791 125.609C179.631 125.829 178.401 126.039 177.101 126.249L175.511 126.489H175.391H175.251L173.861 126.689L172.161 126.919H171.951H171.881L169.321 127.229L167.811 127.409L166.351 127.559L165.211 127.679L162.971 127.899L161.021 128.069L160.021 128.149L157.021 128.379L155.021 128.519L152.281 128.689L151.041 128.759L149.951 128.809L148.141 128.889L146.671 128.949L144.871 128.999H143.601H142.041C134.021 129.266 125.992 128.855 118.041 127.769L116.131 127.479L113.731 127.169H113.651L111.731 126.939L110.081 126.739L108.481 126.539L107.061 126.339H106.881C106.351 126.259 105.821 126.179 105.291 126.079C104.761 125.979 104.231 125.899 103.701 125.789L102.181 125.449H102.081C101.641 125.339 101.201 125.229 100.761 125.099L100.571 125.049C97.3409 124.124 94.267 122.722 91.451 120.889C90.991 120.589 90.531 120.279 90.091 119.959C89.651 119.639 89.201 119.309 88.771 118.959C91.4076 120.194 94.1896 121.091 97.051 121.629C99.501 122.189 102.341 122.709 105.481 123.179C106.481 123.339 107.581 123.489 108.681 123.639C110.321 123.859 112.021 124.059 113.781 124.249H114.151C115.541 124.389 116.971 124.529 118.421 124.649C134.741 126.049 154.691 126.059 171.251 122.999L172.031 122.849C173.521 122.569 174.971 122.259 176.391 121.919C176.911 121.799 177.391 121.679 177.931 121.539L178.811 121.309C183.123 120.229 187.302 118.672 191.271 116.669C193.572 115.506 195.725 114.069 197.681 112.389C199.285 110.982 200.757 109.432 202.081 107.759C213.771 92.9289 209.261 72.7589 205.271 61.5589C205.081 61.0389 204.891 60.5589 204.711 60.0589C203.835 57.7201 202.833 55.4302 201.711 53.1989C202.041 53.6089 202.361 54.0189 202.711 54.4589L203.211 55.1489L203.371 55.3689C203.571 55.6489 203.751 55.9389 203.951 56.2289C204.151 56.5189 204.331 56.7889 204.511 57.0789C204.691 57.3689 204.731 57.4089 204.831 57.5789L205.111 58.0089L205.411 58.5289C205.651 58.9289 205.891 59.3189 206.121 59.7289L206.611 60.6089C207.531 62.2689 208.361 63.8889 209.121 65.4689C209.711 66.7089 210.251 67.9289 210.741 69.1189C210.991 69.7189 211.221 70.3089 211.451 70.8989C211.681 71.4889 211.891 72.0689 212.091 72.6389C212.291 73.2089 212.481 73.7989 212.651 74.3589C212.821 74.9189 213.081 75.7589 213.271 76.4489C213.461 77.1389 213.641 77.8189 213.791 78.4989C214.101 79.8389 214.341 81.1589 214.531 82.4389C214.531 82.7189 214.611 82.9889 214.641 83.2789C214.641 83.5489 214.711 83.8389 214.731 84.1189V84.3489C214.736 84.4288 214.736 84.509 214.731 84.5889V84.9289V85.2789C214.944 85.9456 215.061 86.5389 215.081 87.0589Z" fill="#9292A3"/>
</g>
<g style="mix-blend-mode:multiply" opacity="0.5">
<path d="M67.731 130.319C67.1044 130.022 66.3863 129.983 65.731 130.209C65.4099 130.337 65.148 130.58 64.9963 130.89C64.8447 131.201 64.8143 131.557 64.9109 131.889C65.1909 132.579 66.051 132.779 66.791 132.889C69.451 133.259 72.3309 133.599 74.6909 132.329C75.1858 132.101 75.6055 131.737 75.9009 131.279C76.2209 130.739 76.271 130.069 76.601 129.539C77.481 128.149 79.6009 128.539 81.1609 128.219C82.0215 127.951 82.8961 127.731 83.7809 127.559C85.0709 127.459 86.341 128.089 87.631 127.969C89.261 127.799 90.581 126.469 92.201 126.249C93.411 126.079 94.611 126.559 95.831 126.629C97.5902 126.599 99.3121 126.117 100.831 125.229L102.241 124.529C102.89 124.222 103.558 123.958 104.241 123.739C104.671 123.599 105.111 123.459 105.581 123.329C108.567 122.565 111.591 121.957 114.641 121.509L116.641 121.189L117.861 120.999C119.691 120.729 121.341 120.459 122.641 120.199M121.251 111.079C112.981 112.729 107.561 109.479 99.1809 108.629C96.5309 108.359 93.8509 108.249 91.1809 107.879C89.4422 107.653 87.7304 107.255 86.071 106.689C85.2739 106.337 84.433 106.095 83.571 105.969C83.1411 105.909 82.7031 105.96 82.2987 106.118C81.8943 106.275 81.537 106.534 81.261 106.869C81.1234 107.125 80.9592 107.367 80.771 107.589C80.6216 107.713 80.4451 107.8 80.2557 107.844C80.0664 107.887 79.8695 107.886 79.6809 107.839C79.4849 107.807 79.2956 107.743 79.1209 107.649C78.6109 107.369 78.1809 106.949 77.6809 106.649C77.0228 106.303 76.2655 106.195 75.5368 106.342C74.8081 106.49 74.1526 106.884 73.6809 107.459C73.0809 108.239 72.8009 109.359 71.9109 109.799C70.6109 110.449 69.2109 109.159 68.3409 107.989C67.4709 106.819 66.161 105.489 64.801 105.989C64.151 106.249 63.7409 106.889 63.2209 107.369C61.4909 109.009 58.7609 108.779 56.4009 108.439C55.4582 108.36 54.5354 108.123 53.671 107.739C53.2403 107.543 52.864 107.244 52.5747 106.869C52.2854 106.495 52.0919 106.055 52.011 105.589C51.841 103.859 53.681 102.659 55.331 102.099C55.9857 101.828 56.694 101.712 57.4009 101.759C57.752 101.795 58.0844 101.935 58.3552 102.161C58.6261 102.388 58.8231 102.69 58.921 103.029C59.171 104.239 57.741 105.099 56.521 105.299L121.251 111.079ZM121.251 115.499C114.351 115.159 100.471 116.349 94.0309 118.849L93.271 119.149C92.4411 119.5 91.54 119.651 90.641 119.589C89.281 119.419 88.2109 118.439 87.0909 117.589C86.8909 117.439 86.691 117.289 86.481 117.149C86.2461 116.972 85.9771 116.846 85.6909 116.779C84.9009 116.629 84.2009 117.269 83.5609 117.779C82.577 118.528 81.4229 119.023 80.2016 119.218C78.9803 119.414 77.7296 119.304 76.5609 118.899C75.2209 118.429 73.9509 117.549 72.5609 117.619C71.1709 117.689 69.661 118.889 68.101 118.869C66.9773 118.711 65.9021 118.308 64.951 117.689C62.2628 116.382 59.1879 116.108 56.3109 116.919C55.7503 117.023 55.2422 117.316 54.8709 117.749C54.6321 118.197 54.5726 118.719 54.7045 119.209C54.8363 119.699 55.1497 120.121 55.581 120.389C56.4967 120.89 57.5423 121.102 58.581 120.999L121.251 115.499Z" stroke="#1D111E" stroke-width="0.68" stroke-linecap="round" stroke-linejoin="round"/>
</g>
<g style="mix-blend-mode:multiply" opacity="0.5">
<path d="M175.251 126.499C174.28 125.269 173.242 124.094 172.141 122.979C171.851 122.679 171.551 122.389 171.251 122.099C170.053 120.935 168.788 119.843 167.461 118.829C162.785 115.065 157.314 112.415 151.461 111.079C151.311 111.719 151.091 112.219 150.781 112.319C150.121 112.519 149.141 111.529 148.371 110.589C144.675 110.177 140.933 110.518 137.371 111.589C136.891 112.339 136.371 112.949 135.851 112.899C135.621 112.899 135.411 112.649 135.211 112.329C134.205 112.727 133.22 113.178 132.261 113.679C130.077 114.809 128.007 116.149 126.081 117.679C125.681 117.989 125.291 118.309 124.901 118.679C121.719 121.458 118.744 124.466 116.001 127.679C113.261 130.789 110.451 133.889 108.001 137.229C107.966 137.268 107.935 137.312 107.911 137.359C108.331 135.559 110.591 129.089 110.911 127.569C110.911 127.569 111.911 127.199 111.911 127.189C111.271 127.119 112.551 127.269 111.911 127.189C112.591 126.269 113.291 125.369 114.021 124.469L114.471 123.919C114.981 123.309 115.471 122.709 116.031 122.109L116.801 121.259C117.541 120.469 118.291 119.689 119.071 118.939C120.411 117.616 121.82 116.364 123.291 115.189L123.831 114.749C126.787 112.404 130.055 110.483 133.541 109.039C132.251 107.909 132.321 107.039 132.321 107.039L153.421 106.039C153.449 106.612 153.322 107.183 153.051 107.689C157.184 108.679 161.14 110.298 164.781 112.489C168.753 114.834 172.378 117.722 175.551 121.069C175.671 121.179 175.781 121.299 175.891 121.419C176.001 121.539 176.391 121.949 176.631 122.219C177.551 123.219 178.421 124.299 179.221 125.369C180.903 124.79 182.709 124.672 184.451 125.029L182.901 125.369L180.901 125.759C180.011 125.939 179.081 126.099 178.101 126.259L177.211 126.399L175.621 126.639H175.501L175.251 126.499Z" fill="#9292A3"/>
</g>
<path d="M88.2307 178.759C87.5203 179.668 87.0833 180.761 86.9707 181.909" stroke="#268E26" stroke-width="0.63" stroke-linecap="round" stroke-linejoin="round"/>
<path d="M88.901 178.829C88.901 178.829 88.021 181.309 89.191 182.219" stroke="white" stroke-width="0.63" stroke-linecap="round" stroke-linejoin="round"/>
<path d="M89.6208 179.119C89.6208 179.119 89.2608 181.409 90.6208 181.909" stroke="#0032D0" stroke-width="0.63" stroke-linecap="round" stroke-linejoin="round"/>
<path d="M87.511 177.909C87.511 177.909 86.461 180.489 84.811 180.559" stroke="#D30000" stroke-width="0.63" stroke-linecap="round" stroke-linejoin="round"/>
<path d="M179.131 122.369C169.551 109.629 151.291 99.0289 133.811 105.869C130.174 107.325 126.768 109.302 123.701 111.739C112.041 120.859 104.841 134.239 99.8611 144.879C94.8811 155.519 90.121 166.119 86.981 177.199C86.981 177.199 86.171 178.769 85.311 179.109C85.311 179.109 85.6911 179.389 86.7411 178.819C87.3111 178.489 87.601 179.729 87.601 180.059C87.601 180.389 88.501 179.729 88.501 179.729C88.501 179.729 88.981 179.059 89.501 180.819C89.641 180.009 89.7911 179.679 90.0211 179.919C90.2511 180.159 91.221 180.819 91.221 180.819C91.221 180.819 90.451 180.319 90.811 177.879C93.871 167.199 98.491 156.929 103.371 146.489C108.171 136.239 115.081 123.359 126.101 114.739C128.88 112.533 131.961 110.738 135.251 109.409C150.871 103.299 167.391 113.029 176.121 124.649C177.121 126.019 178.121 127.489 179.121 129.019L182.361 127.019C181.291 125.379 180.221 123.819 179.131 122.369Z" fill="#2B232D"/>
<g style="mix-blend-mode:multiply" opacity="0.5">
<path d="M182.301 127.009L179.061 129.009C178.061 127.479 177.061 126.009 176.061 124.639C167.331 113.019 150.811 103.289 135.201 109.409C131.904 110.725 128.817 112.517 126.041 114.729C115.041 123.349 108.111 136.229 103.311 146.479C98.4308 156.909 93.8208 167.179 90.7508 177.869C90.4408 179.959 90.9608 180.629 91.1208 180.789C90.9908 180.689 90.6108 180.429 90.3208 180.199C90.3058 179.919 90.3058 179.639 90.3208 179.359C90.3998 177.802 90.6822 176.262 91.1608 174.779C91.5608 173.449 91.9808 172.139 92.4108 170.829C93.2908 168.209 94.2608 165.609 95.2708 163.029C96.2808 160.449 97.3908 157.849 98.5108 155.289C99.6308 152.729 100.821 150.119 102.001 147.559C102.451 146.609 102.891 145.649 103.341 144.689C108.141 134.439 115.051 121.569 126.071 112.949C128.847 110.734 131.933 108.938 135.231 107.619C150.841 101.509 167.361 111.239 176.091 122.859C177.091 124.229 178.091 125.699 179.091 127.219L181.521 125.709L182.301 127.009Z" fill="#140716"/>
</g>
<path d="M151.761 105.039C151.761 105.039 151.711 109.149 150.761 109.439C149.551 109.809 147.231 106.159 147.231 106.159L151.761 105.039Z" fill="white"/>
<path d="M133.971 105.889C133.971 105.889 134.811 109.889 135.821 110.009C137.071 110.139 138.641 106.099 138.641 106.099L133.971 105.889Z" fill="white"/>
<path d="M131.501 103.499C131.501 103.499 134.991 111.169 142.401 105.219C146.401 109.729 153.571 106.769 153.291 102.959" fill="#9292A3"/>
<path d="M183.895 141.814L185.201 140.998C185.333 140.915 185.494 140.889 185.646 140.924C185.799 140.959 185.931 141.053 186.014 141.186L189.314 146.47C189.484 146.742 189.539 147.071 189.467 147.384C189.395 147.696 189.201 147.967 188.929 148.137L188.717 148.27C188.445 148.44 188.116 148.495 187.803 148.423C187.491 148.35 187.22 148.157 187.05 147.885L183.749 142.601C183.67 142.475 183.641 142.325 183.668 142.179C183.695 142.033 183.776 141.903 183.895 141.814Z" fill="#919191"/>
<g style="mix-blend-mode:multiply" opacity="0.5">
<path d="M178.751 141.929H174.811L172.621 138.419C171.26 136.237 170.779 133.62 171.274 131.097C171.77 128.574 173.206 126.333 175.291 124.829C175.471 126.022 175.681 127.292 175.921 128.639C176.481 131.849 177.201 135.469 178.111 139.349C178.111 139.469 178.181 139.609 178.211 139.739C178.384 140.459 178.564 141.189 178.751 141.929Z" fill="#9292A3"/>
</g>
<path d="M191.655 136.971L191.4 137.13C190.833 137.484 190.661 138.231 191.015 138.797L193.987 143.555C194.341 144.122 195.088 144.295 195.654 143.941L195.909 143.782C196.476 143.428 196.648 142.681 196.294 142.114L193.322 137.356C192.968 136.79 192.222 136.617 191.655 136.971Z" fill="#919191"/>
<path d="M196.061 138.029L181.841 146.909C181.447 147.154 180.972 147.233 180.52 147.128C180.068 147.023 179.676 146.743 179.431 146.349L173.761 137.279C173.051 136.148 172.572 134.889 172.35 133.572C172.128 132.256 172.168 130.909 172.469 129.608C172.769 128.307 173.323 127.079 174.099 125.993C174.875 124.906 175.858 123.984 176.991 123.279C178.122 122.569 179.381 122.09 180.697 121.868C182.014 121.646 183.361 121.686 184.662 121.986C185.962 122.287 187.191 122.841 188.277 123.617C189.363 124.393 190.286 125.376 190.991 126.509L196.651 135.579C196.776 135.778 196.86 135.999 196.898 136.231C196.936 136.463 196.927 136.7 196.872 136.928C196.817 137.157 196.717 137.372 196.578 137.561C196.439 137.75 196.263 137.909 196.061 138.029Z" fill="#6BB1A2"/>
<g style="mix-blend-mode:multiply" opacity="0.3">
<path d="M178.351 122.619C176.52 124.19 175.311 126.364 174.945 128.749C174.578 131.133 175.077 133.57 176.351 135.619L182.941 146.169L181.761 146.899C181.574 147.017 181.365 147.097 181.147 147.134C180.929 147.171 180.706 147.165 180.491 147.116C180.275 147.066 180.072 146.975 179.891 146.847C179.711 146.719 179.558 146.556 179.441 146.369L173.771 137.289C172.356 135.001 171.902 132.246 172.506 129.625C173.111 127.003 174.726 124.726 177.001 123.289C177.426 123.019 177.879 122.794 178.351 122.619Z" fill="#583929"/>
</g>
<defs>
<radialGradient id="paint0_radial_2348_10272" cx="0" cy="0" r="1" gradientUnits="userSpaceOnUse" gradientTransform="translate(13814.4 3727.41) rotate(-1.85) scale(513.925 243.28)">
<stop offset="0.17" stop-color="#662346"/>
<stop offset="1" stop-color="#662346" stop-opacity="0"/>
</radialGradient>
</defs>
</svg>
