<svg width="17" height="16" viewBox="0 0 17 16" fill="none" stroke="white" xmlns="http://www.w3.org/2000/svg">
<g clip-path="url(#clip0_2345_10166)">
<path d="M15.8335 2.66669V6.66669H11.8335" stroke-width="1.5" stroke-linecap="round" stroke-linejoin="round"/>
<path d="M14.1598 9.99999C13.7264 11.2266 12.9061 12.2791 11.8225 12.999C10.7389 13.7188 9.45073 14.067 8.15204 13.991C6.85335 13.9151 5.61453 13.4191 4.62226 12.5778C3.62999 11.7365 2.93804 10.5955 2.65067 9.32669C2.3633 8.05792 2.49608 6.73011 3.029 5.54337C3.56192 4.35662 4.46612 3.37523 5.60533 2.74708C6.74454 2.11893 8.05704 1.87806 9.34506 2.06075C10.6331 2.24345 11.8268 2.83981 12.7464 3.75999L15.8331 6.66666" stroke-width="1.5" stroke-linecap="round" stroke-linejoin="round"/>
</g>
<defs>
<clipPath id="clip0_2345_10166">
<rect width="16" height="16" fill="white" transform="translate(0.5)"/>
</clipPath>
</defs>
</svg>
