<svg width="18" height="17" viewBox="0 0 18 17" fill="none" xmlns="http://www.w3.org/2000/svg">
<g clip-path="url(#clip0_2154_10126)">
<path d="M3.50812 9.24055H6.1806C4.92175 10.1366 4.30035 10.8154 3.43933 10.8154C2.53818 10.7411 2.79729 9.97541 3.02086 9.54227C3.06598 9.45185 3.13546 9.37574 3.22151 9.32245C3.30757 9.26916 3.40681 9.24081 3.50812 9.24055Z" fill="#D9304F"/>
<path d="M3.75945 16.476H0.879448C0.87283 16.4759 0.866317 16.4743 0.86043 16.4713C0.854543 16.4683 0.849446 16.4639 0.845547 16.4586C0.841647 16.4533 0.839053 16.4471 0.837972 16.4406C0.836891 16.4341 0.837353 16.4274 0.839321 16.4211L1.12251 15.5594C1.13027 15.5357 1.14306 15.514 1.16 15.4956C1.17695 15.4773 1.19765 15.4628 1.22071 15.4532C1.24376 15.4435 1.26864 15.4389 1.29363 15.4397C1.31862 15.4405 1.34316 15.4466 1.36556 15.4577C2.14032 15.8368 2.94571 16.1503 3.77321 16.3948C3.784 16.3967 3.79363 16.4027 3.79997 16.4116C3.80631 16.4205 3.80885 16.4315 3.80703 16.4423C3.8052 16.453 3.79917 16.4626 3.79024 16.4689C3.78132 16.4753 3.77024 16.4778 3.75945 16.476Z" fill="#D9304F"/>
<path d="M14.581 9.24054H11.9097C13.1708 10.1365 13.7888 10.8097 14.6498 10.8097C15.5509 10.7354 15.2918 9.96969 15.0683 9.53654C15.0225 9.44711 14.9527 9.37209 14.8666 9.31984C14.7806 9.26758 14.6817 9.24013 14.581 9.24054Z" fill="#D9304F"/>
<path d="M14.3311 16.476H17.2111C17.2178 16.4762 17.2244 16.4747 17.2304 16.4718C17.2365 16.4689 17.2417 16.4645 17.2456 16.4591C17.2496 16.4537 17.2522 16.4474 17.2531 16.4408C17.2541 16.4342 17.2534 16.4274 17.2512 16.4211L16.968 15.5594C16.9601 15.5357 16.9472 15.5139 16.9301 15.4956C16.9131 15.4772 16.8923 15.4627 16.8691 15.4531C16.846 15.4435 16.821 15.4389 16.796 15.4397C16.7709 15.4405 16.7463 15.4466 16.7238 15.4577C15.949 15.8367 15.1436 16.1502 14.3162 16.3948C14.3054 16.3968 14.2958 16.403 14.2896 16.412C14.2833 16.421 14.2809 16.4321 14.2829 16.4428C14.2849 16.4536 14.2911 16.4631 14.3001 16.4693C14.3091 16.4756 14.3203 16.4779 14.3311 16.476Z" fill="#D9304F"/>
<path d="M17.9723 9.36055C14.0422 14.8348 12.5838 9.73998 10.2152 9.73998C9.28763 9.73998 9.04343 10.4863 9.04343 10.8143C9.04343 10.4863 8.80037 9.73998 7.87286 9.73998C5.50305 9.73998 4.04585 14.8348 0.114512 9.36055C0.0388431 15.364 5.7656 16.7891 9.04228 13.028C12.3213 16.7834 18.048 15.364 17.9723 9.36055Z" fill="#D9304F"/>
<path d="M17.5104 7.11027C17.0701 7.34569 16.5828 7.57884 16.1667 7.75712C16.0301 7.81535 15.883 7.84529 15.7344 7.84512H2.35366C2.2051 7.8452 2.05807 7.81526 1.92143 7.75712C1.50525 7.57884 1.01799 7.34569 0.573153 7.11027C0.533371 7.08893 0.502318 7.05441 0.485361 7.01268C0.468404 6.97094 0.466609 6.92461 0.480287 6.88169C0.533025 6.70684 0.631624 6.39827 0.77379 6.05312C0.784005 6.02848 0.799228 6.00621 0.8185 5.98772C0.837773 5.96923 0.860677 5.95492 0.885772 5.94568C0.910866 5.93645 0.937606 5.9325 0.964309 5.93407C0.991011 5.93565 1.0171 5.94272 1.04092 5.95484C1.46857 6.17084 1.81022 6.32512 2.12895 6.45884V3.86455C2.12985 3.81848 2.14735 3.77426 2.17825 3.73998C3.02084 2.74093 4.07121 1.93639 5.25661 1.38208C6.44202 0.827763 7.73414 0.536921 9.04347 0.529694C10.353 0.536985 11.6452 0.827849 12.8308 1.38215C14.0164 1.93646 15.067 2.74096 15.9098 3.73998C15.9392 3.77495 15.9554 3.81898 15.9557 3.86455V6.46227C16.2744 6.32855 16.6161 6.17426 17.0449 5.95826C17.0686 5.94616 17.0946 5.9391 17.1212 5.93754C17.1479 5.93598 17.1745 5.93994 17.1995 5.94918C17.2245 5.95842 17.2473 5.97273 17.2665 5.99121C17.2857 6.0097 17.3008 6.03195 17.3109 6.05655C17.453 6.39941 17.5516 6.71027 17.6044 6.88512C17.6173 6.9277 17.615 6.97342 17.5978 7.01448C17.5807 7.05555 17.5498 7.0894 17.5104 7.11027Z" fill="#D9304F"/>
</g>
<defs>
<clipPath id="clip0_2154_10126">
<rect width="18" height="16" fill="white" transform="translate(0 0.5)"/>
</clipPath>
</defs>
</svg>
