<svg width="26" height="16" viewBox="0 0 26 16" fill="none" xmlns="http://www.w3.org/2000/svg">
<path d="M20.2793 0.683456L14.0049 5.27832L15.1652 2.56741L20.2793 0.683456Z" fill="#E2761B" stroke="#E2761B" stroke-linecap="round" stroke-linejoin="round"/>
<path d="M5.79443 0.683456L12.0185 5.32185L10.9149 2.56741L5.79443 0.683456Z" fill="#E4761B" stroke="#E4761B" stroke-linecap="round" stroke-linejoin="round"/>
<path d="M18.0217 11.3343L16.3506 13.8587L19.9261 14.8287L20.954 11.3903L18.0217 11.3343Z" fill="#E4761B" stroke="#E4761B" stroke-linecap="round" stroke-linejoin="round"/>
<path d="M5.13232 11.3903L6.1539 14.8287L9.7294 13.8587L8.05831 11.3343L5.13232 11.3903Z" fill="#E4761B" stroke="#E4761B" stroke-linecap="round" stroke-linejoin="round"/>
<path d="M9.5276 7.06902L8.53125 8.55505L12.0815 8.71049L11.9554 4.94879L9.5276 7.06902Z" fill="#E4761B" stroke="#E4761B" stroke-linecap="round" stroke-linejoin="round"/>
<path d="M16.5462 7.06901L14.0869 4.90526L14.0049 8.71048L17.5489 8.55503L16.5462 7.06901Z" fill="#E4761B" stroke="#E4761B" stroke-linecap="round" stroke-linejoin="round"/>
<path d="M9.72949 13.8587L11.8609 12.8328L10.0196 11.4152L9.72949 13.8587Z" fill="#E4761B" stroke="#E4761B" stroke-linecap="round" stroke-linejoin="round"/>
<path d="M14.2129 12.8328L16.3506 13.8587L16.0542 11.4152L14.2129 12.8328Z" fill="#E4761B" stroke="#E4761B" stroke-linecap="round" stroke-linejoin="round"/>
<path d="M16.3511 13.8587L14.2134 12.8328L14.3836 14.2069L14.3647 14.7852L16.3511 13.8587Z" fill="#D7C1B3" stroke="#D7C1B3" stroke-linecap="round" stroke-linejoin="round"/>
<path d="M9.72949 13.8587L11.7159 14.7852L11.7033 14.2069L11.8609 12.8328L9.72949 13.8587Z" fill="#D7C1B3" stroke="#D7C1B3" stroke-linecap="round" stroke-linejoin="round"/>
<path d="M11.747 10.5074L9.96875 9.99133L11.2236 9.42552L11.747 10.5074Z" fill="#233447" stroke="#233447" stroke-linecap="round" stroke-linejoin="round"/>
<path d="M14.3267 10.5074L14.8501 9.42552L16.1113 9.99133L14.3267 10.5074Z" fill="#233447" stroke="#233447" stroke-linecap="round" stroke-linejoin="round"/>
<path d="M9.72919 13.8587L10.0319 11.3344L8.05811 11.3903L9.72919 13.8587Z" fill="#CD6116" stroke="#CD6116" stroke-linecap="round" stroke-linejoin="round"/>
<path d="M16.0479 11.3344L16.3505 13.8587L18.0216 11.3903L16.0479 11.3344Z" fill="#CD6116" stroke="#CD6116" stroke-linecap="round" stroke-linejoin="round"/>
<path d="M17.5484 8.55505L14.0044 8.7105L14.3323 10.5074L14.8557 9.42553L16.1169 9.99134L17.5484 8.55505Z" fill="#CD6116" stroke="#CD6116" stroke-linecap="round" stroke-linejoin="round"/>
<path d="M9.96902 9.99134L11.2302 9.42553L11.7473 10.5074L12.0815 8.7105L8.53125 8.55505L9.96902 9.99134Z" fill="#CD6116" stroke="#CD6116" stroke-linecap="round" stroke-linejoin="round"/>
<path d="M8.53125 8.55505L10.0195 11.4152L9.96902 9.99134L8.53125 8.55505Z" fill="#E4751F" stroke="#E4751F" stroke-linecap="round" stroke-linejoin="round"/>
<path d="M16.1173 9.99134L16.0542 11.4152L17.5487 8.55505L16.1173 9.99134Z" fill="#E4751F" stroke="#E4751F" stroke-linecap="round" stroke-linejoin="round"/>
<path d="M12.0813 8.71049L11.7471 10.5074L12.1633 12.6276L12.2579 9.83589L12.0813 8.71049Z" fill="#E4751F" stroke="#E4751F" stroke-linecap="round" stroke-linejoin="round"/>
<path d="M14.0047 8.71049L13.8345 9.82968L13.9101 12.6276L14.3327 10.5074L14.0047 8.71049Z" fill="#E4751F" stroke="#E4751F" stroke-linecap="round" stroke-linejoin="round"/>
<path d="M14.3327 10.5074L13.9102 12.6276L14.2128 12.8328L16.0542 11.4152L16.1173 9.99135L14.3327 10.5074Z" fill="#F6851B" stroke="#F6851B" stroke-linecap="round" stroke-linejoin="round"/>
<path d="M9.96875 9.99135L10.0192 11.4152L11.8606 12.8328L12.1632 12.6276L11.747 10.5074L9.96875 9.99135Z" fill="#F6851B" stroke="#F6851B" stroke-linecap="round" stroke-linejoin="round"/>
<path d="M14.3644 14.7852L14.3833 14.2069L14.2257 14.0701H11.8483L11.7033 14.2069L11.7159 14.7852L9.72949 13.8587L10.4232 14.4183L11.8294 15.3821H14.2446L15.6571 14.4183L16.3508 13.8587L14.3644 14.7852Z" fill="#C0AD9E" stroke="#C0AD9E" stroke-linecap="round" stroke-linejoin="round"/>
<path d="M14.2129 12.8328L13.9102 12.6276H12.1635L11.8608 12.8328L11.7031 14.2069L11.8482 14.0701H14.2255L14.3832 14.2069L14.2129 12.8328Z" fill="#161616" stroke="#161616" stroke-linecap="round" stroke-linejoin="round"/>
<path d="M20.5441 5.57677L21.0801 3.03996L20.2793 0.683456L14.2129 5.12288L16.5461 7.06901L19.8441 8.02032L20.5756 7.18093L20.2603 6.95709L20.7648 6.5032L20.3738 6.20476L20.8783 5.82548L20.5441 5.57677Z" fill="#763D16" stroke="#763D16" stroke-linecap="round" stroke-linejoin="round"/>
<path d="M5 3.03996L5.53601 5.57677L5.19549 5.82548L5.69997 6.20476L5.3153 6.5032L5.81978 6.95709L5.50448 7.18093L6.22967 8.02032L9.52771 7.06901L11.8609 5.12288L5.79456 0.683456L5 3.03996Z" fill="#763D16" stroke="#763D16" stroke-linecap="round" stroke-linejoin="round"/>
<path d="M19.8441 8.02034L16.5461 7.06903L17.5487 8.55506L16.0542 11.4152L18.0217 11.3903H20.954L19.8441 8.02034Z" fill="#F6851B" stroke="#F6851B" stroke-linecap="round" stroke-linejoin="round"/>
<path d="M9.52761 7.06903L6.22957 8.02034L5.13232 11.3903H8.05831L10.0195 11.4152L8.53126 8.55506L9.52761 7.06903Z" fill="#F6851B" stroke="#F6851B" stroke-linecap="round" stroke-linejoin="round"/>
<path d="M14.005 8.7105L14.2131 5.12289L15.1716 2.56743H10.915L11.8609 5.12289L12.0816 8.7105L12.1573 9.84211L12.1636 12.6276H13.9104L13.923 9.84211L14.005 8.7105Z" fill="#F6851B" stroke="#F6851B" stroke-linecap="round" stroke-linejoin="round"/>
</svg>
